<?xml version="1.0" encoding="utf-8"?>
<!-- Generator: Adobe Illustrator 16.0.0, SVG Export Plug-In . SVG Version: 6.00 Build 0)  -->
<!DOCTYPE svg PUBLIC "-//W3C//DTD SVG 1.1//EN" "http://www.w3.org/Graphics/SVG/1.1/DTD/svg11.dtd">
<svg version="1.1" id="Layer_1" xmlns="http://www.w3.org/2000/svg" xmlns:xlink="http://www.w3.org/1999/xlink" x="0px" y="0px"
	 width="300px" height="300px" viewBox="0 0 300 300" enable-background="new 0 0 300 300" xml:space="preserve">
<g>
	<path fill="none" d="M193.48,183.137c0.005-2.382,0.01-4.763-0.01-7.146c-0.054-7.068-5.195-12.213-12.226-12.231
		c-6.766-0.017-13.532-0.025-20.298-0.025c-6.873,0-13.745,0.009-20.619,0.025c-7.069,0.018-12.213,5.159-12.229,12.224
		c-0.035,13.778-0.035,27.546,0,40.918c0.018,7.067,5.159,12.209,12.225,12.227c13.638,0.033,27.276,0.038,40.916-0.001
		c7.042-0.019,12.185-5.159,12.229-12.222c0.027-4.641,0.021-9.28,0.014-13.921l-0.007-16.636L193.48,183.137z M163.086,221.698
		c-0.827,0.087-1.67,0.132-2.503,0.132c-12.262,0.001-22.85-9.099-24.627-21.166c-0.518-3.511-0.065-7.177,0.44-10.631
		c0.388-2.652,2.199-4.435,4.51-4.435c0.403,0,0.811,0.056,1.213,0.165c2.713,0.738,3.842,3.076,3.097,6.414
		c-1.182,5.289-0.065,10.563,3.063,14.469c3.157,3.94,8.066,6.118,13.456,5.897c4.256-0.168,8.349-2.193,11.229-5.558
		c2.971-3.469,4.379-8.01,3.865-12.46c-0.923-7.988-7.944-14.245-15.984-14.245c-0.981,0-1.967,0.098-2.927,0.29
		c-0.414,0.082-0.822,0.188-1.23,0.296c-0.341,0.088-0.68,0.177-1.021,0.253c-0.408,0.09-0.821,0.137-1.224,0.137
		c-2.067,0-3.789-1.203-4.387-3.063c-0.404-1.256-0.307-2.549,0.277-3.645c0.561-1.054,1.537-1.827,2.75-2.177
		c1.74-0.503,3.552-0.822,5.303-1.13c0.771-0.137,1.542-0.177,2.309-0.327l0.058,0.084h0.059c13.519,0,24.628,10.904,25.289,24.166
		C186.773,208.666,176.664,220.266,163.086,221.698z"/>
	<path fill="none" d="M247.737,113.054l0.146,0.003c3.149,0,3.624-2.951,3.628-4.71c0.011-8.55,0.008-17.099,0-25.649
		c-0.002-0.484-0.046-0.934-0.092-1.438c-0.009-0.097-0.019-0.259-0.027-0.259H244v7.374c0,6.732,0.078,13.36,0.086,19.989
		C244.09,110.454,244.792,112.965,247.737,113.054z"/>
	<path fill="none" d="M77.395,82.329c-0.001-0.411-0.062-0.825-0.122-1.238C77.268,81.056,77.262,81,77.257,81H70.16
		c-0.043,0-0.08,0.228-0.08,0.292c-0.016,9.324-0.025,18.644-0.011,27.969c0.002,0.559,0.109,1.1,0.304,1.528
		c0.469,1.042,1.395,2.281,3.155,2.281c0.273,0,0.561-0.031,0.856-0.091c2.007-0.404,3.023-1.74,3.021-3.967
		c-0.004-3.906-0.004-7.811-0.004-11.717C77.402,92.306,77.402,87.317,77.395,82.329z"/>
	<path fill="#AAAAAA" d="M280.887,56.101c-0.295-0.02-0.593,0.43-0.891,0.43L278.593,57h-26.73l-0.137-0.782
		c-0.094-0.229-0.18-0.671-0.261-0.876c-0.16-0.404-0.302-0.879-0.479-1.224c-0.811-1.582-2.049-2.316-3.68-2.04
		c-1.739,0.298-2.771,1.39-2.981,3.212c-0.074,0.637,0.295,1.269,0.309,1.953c0.006,0.273,0.367,0.533,0.367,0.805v14.48
		l-1.641,0.082c-0.41,0.029-0.913,0.052-1.239,0.058c-5.276,0.1-6.12,0.767-6.12,5.951V93.75l-0.479,0.047
		c-3.33,0.332-6.635,0.67-9.923,1.007c-7.376,0.756-15.003,1.538-22.475,2.186c-8.375,0.726-8.375,0.726-9.148,8.793l-0.021,0.265
		c-1.379,13.22-10.334,22.873-22.814,24.454c-2.206,0.28-4.646,0.498-7.685,0.498c0,0-0.001,0-0.002,0
		c-1.526,0-3.06-0.118-4.592-0.149c-1.524-0.031-3.048-0.105-4.567-0.105l-0.713-0.02c-6.175,0-11.252-1.74-15.092-5.15
		c-2.559-2.271-4.779-3.204-7.663-3.204c-0.942,0-1.967,0.099-3.132,0.307c-12.533,2.238-22.533,12.142-23.779,23.55
		c-0.791,7.23-0.586,14.708-0.387,21.938l0.041,1.506c0.062,2.305,1.118,4.676,2.138,6.968l0.181,0.404
		c0.933,2.101,2.92,2.91,4.828,1.995c2.328-1.116,2.036-3.526,1.381-5.351c-0.975-2.719-1.491-5.046-1.581-7.114
		c-0.18-4.193-0.137-8.46-0.094-12.585c0.01-1.08,0.021-2.159,0.028-3.238c0.07-10.784,8.107-19.834,18.695-21.052
		c1.376-0.16,3.145,0.348,4.346,1.206c4.527,3.235,8.476,5.484,13.033,5.943c6.998,0.707,14.042,0.82,20.853,0.931l0.55,0.005
		c7.141,0,13.906-2.315,20.104-6.879c1.167-0.858,2.952-1.368,4.353-1.211c10.587,1.188,18.639,10.223,18.729,21.017
		c0.009,1.082,0.026,2.165,0.043,3.248c0.057,3.533,0.114,7.187-0.11,10.773c-0.199,3.213-0.982,6.383-1.767,9.354
		c-0.339,1.282-0.589,3.604,1.552,4.738c0.558,0.295,1.16,0.451,1.742,0.451c1.222,0,2.271-0.665,2.88-1.825
		c0.987-1.885,2.104-4.019,2.228-6.032c0.455-7.438,0.519-14.94,0.523-20.647c0.008-11.376-7.128-21.883-17.757-26.145
		c-0.944-0.378-1.923-0.702-2.71-0.962c-0.326-0.107-0.623-0.206-0.874-0.293l-0.479-0.167l5.707-18.963L236,100.867v0.586
		c0,1.011-0.004,1.974-0.016,2.905c-0.018,1.923-0.035,3.739,0.041,5.526c0.261,6.241,5.345,11.225,11.574,11.347l0.23,0.002
		c6.371,0,11.652-4.979,11.775-11.098c0.184-9.269,0.133-18.701,0.084-27.822l-0.03-5.838c-0.011-3.018-2.142-3.73-3.927-3.796
		c-0.795-0.031-1.596-0.358-2.433-0.351c-0.402,0.004-0.813-0.328-1.237-0.328H251v-8.804l21.334,0.009
		c2.668,0,5.468-0.006,8.135-0.029c2.306-0.02,3.993-1.463,4.01-3.51C284.495,57.715,283.057,56.249,280.887,56.101z M252.377,80
		l0.035,0.428c0.019,0.261,0.041,0.484,0.064,0.732c0.05,0.537,0.096,1.037,0.096,1.552c0.009,8.551,0.012,17.093,0,25.644
		c-0.005,3.613-1.758,5.766-4.688,5.766l-0.178-0.005c-2.919-0.088-4.647-2.186-4.651-5.752C243.047,101.736,243,95.105,243,88.374
		V80H252.377z"/>
	<path fill="#AAAAAA" d="M201.646,176.341c-0.036-12.007-8.747-20.734-20.712-20.753c-6.846-0.011-13.691-0.017-20.538-0.017
		c-6.53,0-13.06,0.005-19.591,0.017c-12.076,0.02-20.857,8.783-20.878,20.837c-0.024,13.376-0.019,26.751-0.001,40.128
		c0.017,12,8.725,20.727,20.707,20.751c13.461,0.026,26.925,0.021,40.387,0.001c11.728-0.019,20.595-8.865,20.626-20.579
		c0.012-4.588,0.009-9.177,0.005-13.766l-0.003-6.428l0.004-5.587C201.656,186.078,201.66,181.209,201.646,176.341z M194.53,216.911
		c-0.048,7.673-5.636,13.257-13.288,13.277c-6.672,0.019-13.343,0.026-20.016,0.026c-6.969,0-13.938-0.009-20.904-0.025
		c-7.679-0.02-13.265-5.607-13.285-13.285c-0.033-13.374-0.033-27.143,0-40.923c0.019-7.678,5.606-13.264,13.289-13.283
		c13.64-0.033,27.283-0.033,40.921,0c7.64,0.021,13.228,5.607,13.285,13.285c0.02,2.385,0.015,4.771,0.009,7.155l-0.004,13.567
		l0.007,6.277C194.551,207.626,194.559,212.27,194.53,216.911z"/>
	<path fill="#AAAAAA" d="M114.663,103.786l5.578,0.571l0.706,4.956c0.339,2.372,1.867,3.786,3.879,3.615
		c0.963-0.085,1.775-0.501,2.349-1.204c0.667-0.817,0.955-1.963,0.812-3.229c-0.229-2.015-0.502-4.025-0.774-6.035l-0.188-1.396
		c-0.293-2.157-1.462-3.308-3.576-3.52c-3.384-0.339-6.768-0.669-10.151-1c-3.829-0.374-7.658-0.748-11.485-1.134
		c-3.598-0.362-7.192-0.743-10.839-1.13l-5.4-0.571l0.005-5.47c0.006-3.825,0.011-7.559-0.014-11.293
		c-0.019-2.928-1.289-4.206-4.245-4.273c-0.406-0.009-1.028-0.012-1.439-0.012L77,72.669v-9.475l22.83,0.014
		c2.162,0,4.433-0.007,6.595-0.031c2.308-0.026,3.966-1.483,3.955-3.545c-0.01-2.021-1.567-3.442-3.919-3.538
		c-0.277-0.011-0.54,0.44-0.817,0.44L104.178,57h-26.42l-0.135-0.784c-1.411-3.426-2.866-4.05-3.838-4.05
		c-0.204,0-0.413-0.093-0.628-0.053c-1.388,0.254-2.565,1.002-2.567,5C70.586,60.668,71,64.168,71,67.819v4.714l-1.686,0.078
		c-0.443,0.029-0.991,0.052-1.333,0.057c-5.229,0.088-5.993,0.761-5.994,6l-0.053,5.728c-0.004,8.021-0.032,15.926-0.022,23.947
		C61.924,115.673,66.819,121,73.588,121h0.132c6.831,0,11.814-5.245,11.851-12.63c0.008-1.511,0.005-2.965,0.002-4.527l-0.002-2.999
		l6.532,0.659c3.741,0.369,7.354,0.731,10.968,1.094C106.926,102.985,110.782,103.388,114.663,103.786z M74.594,114.02
		c-0.363,0.073-0.723,0.11-1.065,0.11c-1.816,0-3.28-1.032-4.124-2.908c-0.253-0.561-0.395-1.258-0.396-1.964
		c-0.015-9.328-0.005-18.655,0.011-27.981c0.001-0.243,0.072-0.45,0.146-0.67c0.03-0.091,0.064-0.148,0.097-0.261L69.369,80h8.827
		l0.054,0.428c0.02,0.175,0.046,0.334,0.072,0.52c0.065,0.449,0.133,0.903,0.134,1.39c0.008,4.989,0.008,9.974,0.008,14.964
		c0,3.905,0,7.807,0.004,11.712C78.47,111.74,77.094,113.516,74.594,114.02z"/>
	<path fill="#AAAAAA" d="M99.269,80.975c-2.534,0.014-4.187,1.392-4.209,3.512c-0.009,0.945,0.312,1.774,0.926,2.398
		c0.738,0.749,1.879,1.164,3.21,1.17c7.857,0.035,15.714,0.033,23.567,0.003c2.542-0.01,4.035-1.29,4.204-3.604
		c0.244-3.316,1.909-5.813,4.949-7.419c3.116-1.647,5.888-2.756,8.475-3.391c6.243-1.531,12.852-2.308,19.641-2.308
		c4.587,0,9.381,0.354,14.248,1.053c5.288,0.759,10.365,2.558,14.199,4.04c3.766,1.456,5.942,4.42,6.129,8.349
		c0.1,2.049,1.52,3.243,3.895,3.276c2.776,0.039,5.555,0.029,8.328,0.021c1.193-0.003,2.387-0.007,3.581-0.007l7.012,0.004
		c1.462,0,2.923-0.001,4.384-0.007c2.98-0.011,4.694-1.301,4.7-3.54c0.003-0.954-0.292-1.736-0.88-2.327
		c-0.796-0.801-2.108-1.227-3.794-1.23l-2.813-0.002l-6.174,0.003c-3.049,0-6.1-0.007-9.149-0.045
		c-0.763-0.011-2.457-0.323-2.837-1.225c-3.375-8.002-10.631-10.927-17.284-12.734c-6.491-1.761-13.607-2.617-21.756-2.617
		c-2.71,0-5.541,0.091-8.653,0.278c-6.51,0.392-14.124,1.213-21.251,4.335c-5.693,2.496-9.228,5.806-11.119,10.417
		c-0.377,0.913-1.953,1.516-2.872,1.53c-3.158,0.051-6.284,0.058-9.191,0.058l-4.84-0.002
		C102.352,80.964,100.811,80.966,99.269,80.975z"/>
	<path fill="#AAAAAA" d="M63.945,57.159c-0.677-0.689-1.735-1.055-3.061-1.06c-3.334-0.013-6.666-0.02-9.998-0.02
		c-3.214,0-6.429,0.007-9.643,0.022c-2.525,0.013-4.184,1.381-4.222,3.487c-0.017,0.941,0.288,1.761,0.881,2.371
		c0.77,0.79,1.969,1.215,3.469,1.229c1.265,0.012,2.529,0.016,3.794,0.016l5.765-0.008l5.964,0.007c1.285,0,2.57-0.003,3.854-0.012
		c2.607-0.018,4.062-1.257,4.093-3.488C64.854,58.632,64.553,57.776,63.945,57.159z"/>
	<path fill="#AAAAAA" d="M215.308,63.184c1.263,0.016,2.526,0.021,3.789,0.021l5.764-0.011c1.01,0,2.021,0.003,3.03,0.007
		c2.347,0.009,4.694,0.018,7.039-0.021c2.373-0.038,3.949-1.389,4.015-3.442c0.03-0.947-0.283-1.79-0.905-2.437
		c-0.733-0.763-1.848-1.187-3.136-1.196c-6.543-0.043-13.088-0.039-19.629-0.003c-2.485,0.014-4.149,1.443-4.139,3.554
		C211.146,61.768,212.782,63.153,215.308,63.184z"/>
	<path fill="#AAAAAA" d="M160.843,171.872c-0.755,0.148-1.514,0.282-2.272,0.416c-1.724,0.304-3.506,0.617-5.192,1.104
		c-0.948,0.273-1.677,0.846-2.107,1.655c-0.446,0.84-0.519,1.842-0.204,2.821c0.554,1.723,2.385,2.653,4.371,2.214
		c0.329-0.072,0.655-0.158,0.982-0.243c0.429-0.111,0.857-0.224,1.29-0.31c1.028-0.206,2.084-0.311,3.136-0.311
		c8.571,0,16.056,6.669,17.039,15.185c0.548,4.743-0.951,9.581-4.114,13.273c-3.071,3.587-7.442,5.747-11.993,5.928
		c-5.711,0.226-10.959-2.091-14.326-6.296c-3.332-4.157-4.524-9.758-3.271-15.364c0.355-1.592,0.524-4.379-2.338-5.157
		c-0.313-0.085-0.626-0.128-0.936-0.128c-1.789,0-3.146,1.384-3.459,3.526c-0.495,3.377-0.937,7.071-0.44,10.437
		C138.708,212.174,148.843,221,160.581,221c0,0,0.001,0,0.002,0c0.797,0,1.602-0.158,2.392-0.24
		c13.018-1.375,22.71-12.643,22.066-25.578C184.407,182.49,173.783,172.229,160.843,171.872z"/>
</g>
</svg>
