<?xml version="1.0" encoding="utf-8"?>
<!-- Generator: Adobe Illustrator 16.0.0, SVG Export Plug-In . SVG Version: 6.00 Build 0)  -->
<!DOCTYPE svg PUBLIC "-//W3C//DTD SVG 1.1//EN" "http://www.w3.org/Graphics/SVG/1.1/DTD/svg11.dtd">
<svg version="1.1" id="Layer_1" xmlns="http://www.w3.org/2000/svg" xmlns:xlink="http://www.w3.org/1999/xlink" x="0px" y="0px"
	 width="705.454px" height="189.091px" viewBox="0 0 705.454 189.091" enable-background="new 0 0 705.454 189.091"
	 xml:space="preserve">
<g>
	<g>
		<path fill="#F8981D" d="M115.138,13.005c-0.17-0.174-0.364-0.299-0.583-0.368c-10.685-3.44-19.177-0.425-27.134,7.354
			c-7.957,7.775-6.913,23.127-6.913,23.127l0.227,0.017l0.13,0.008c19.598,2.841,26.672-5.311,27.935-6.816
			c1.328-1.603,3.958-4.493,5.796-10.92C115.996,20.497,116.676,14.632,115.138,13.005z"/>
	</g>
	<g>
		<path fill="#F8981D" d="M99.977,48.701c-35.965-11.858-74.731,7.684-86.59,43.65c-11.858,35.963,7.69,74.738,43.647,86.596
			c35.965,11.852,74.739-7.689,86.59-43.654C155.491,99.333,135.942,60.563,99.977,48.701z M99.839,120.316l-29.457,17.008
			c-5.002,2.891-11.26-0.721-11.26-6.492v-34.02c0-5.771,6.257-9.379,11.26-6.492l29.457,17.004
			C104.841,110.214,104.841,117.435,99.839,120.316z"/>
	</g>
	<g>
		<path fill="#F8981D" d="M221.904,123.421c-1.28,3.289-3.075,6.188-5.383,8.695c-2.31,2.512-5.108,4.506-8.395,5.986
			c-3.288,1.479-6.915,2.221-10.879,2.221c-4.016,0-7.642-0.742-10.879-2.221c-3.237-1.48-6.011-3.463-8.319-5.947
			c-2.309-2.486-4.091-5.357-5.345-8.621c-1.255-3.262-1.882-6.701-1.882-10.314v-0.15c0-3.613,0.64-7.064,1.919-10.352
			c1.28-3.287,3.074-6.186,5.383-8.695c2.308-2.51,5.093-4.504,8.356-5.986c3.262-1.479,6.9-2.221,10.917-2.221
			c3.964,0,7.578,0.742,10.841,2.221c3.262,1.482,6.048,3.463,8.357,5.949c2.308,2.484,4.09,5.357,5.345,8.619
			c1.254,3.264,1.882,6.701,1.882,10.314c0.049,0.051,0.049,0.102,0,0.15C223.824,116.683,223.184,120.134,221.904,123.421z
			 M219.759,113.07c0-3.262-0.565-6.336-1.694-9.223c-1.129-2.885-2.686-5.395-4.667-7.529c-1.983-2.131-4.355-3.826-7.115-5.08
			c-2.761-1.254-5.772-1.883-9.034-1.883c-3.263,0-6.262,0.615-8.997,1.844c-2.736,1.23-5.095,2.912-7.077,5.045
			c-1.983,2.133-3.526,4.629-4.63,7.49c-1.104,2.861-1.656,5.924-1.656,9.186v0.15c0,3.264,0.564,6.336,1.694,9.223
			s2.685,5.396,4.667,7.529c1.982,2.133,4.354,3.826,7.115,5.08c2.76,1.256,5.771,1.883,9.034,1.883
			c3.262,0,6.261-0.613,8.997-1.844c2.735-1.23,5.093-2.91,7.077-5.045c1.982-2.133,3.525-4.631,4.63-7.49
			c1.103-2.861,1.656-5.922,1.656-9.186V113.07z"/>
		<path fill="#F8981D" d="M256.648,104.488c-2.209,0-4.317,0.414-6.324,1.242c-2.008,0.828-3.777,2.059-5.308,3.688
			c-1.532,1.633-2.748,3.641-3.651,6.023c-0.903,2.385-1.355,5.133-1.355,8.244v15.734h-3.689v-38.395h3.689v10.916
			c0.753-1.707,1.706-3.287,2.861-4.744c1.154-1.455,2.458-2.697,3.915-3.727c1.455-1.027,3.049-1.807,4.781-2.334
			c1.731-0.525,3.55-0.764,5.458-0.715v4.066H256.648z"/>
		<path fill="#F8981D" d="M290.903,139.419v-6.398c-0.653,0.902-1.443,1.795-2.371,2.672c-0.93,0.879-1.995,1.656-3.2,2.334
			s-2.573,1.23-4.103,1.656c-1.532,0.426-3.2,0.641-5.007,0.641c-1.807,0-3.589-0.252-5.345-0.754
			c-1.757-0.5-3.338-1.254-4.743-2.258c-1.406-1.004-2.548-2.258-3.425-3.764c-0.879-1.506-1.318-3.264-1.318-5.271v-0.15
			c0-2.006,0.415-3.789,1.243-5.346c0.828-1.555,1.969-2.859,3.425-3.914c1.455-1.055,3.211-1.855,5.27-2.408
			c2.058-0.553,4.341-0.828,6.851-0.828c2.71,0,5.044,0.15,7.001,0.451c1.958,0.301,3.864,0.703,5.722,1.205v-1.648
			c0-3.893-1.117-6.813-3.35-8.758c-2.234-1.945-5.333-2.92-9.298-2.92c-2.36,0-4.517,0.289-6.475,0.865
			c-1.958,0.578-3.815,1.318-5.571,2.221l-1.355-3.24c2.108-1.025,4.241-1.846,6.399-2.461c2.157-0.615,4.566-0.924,7.228-0.924
			c4.969,0,8.884,1.256,11.745,3.764c2.861,2.512,4.291,6.275,4.291,11.293v23.941H290.903z M290.979,120.667
			c-1.607-0.4-3.489-0.787-5.646-1.164c-2.159-0.373-4.619-0.561-7.378-0.561c-4.065,0-7.189,0.813-9.373,2.438
			c-2.183,1.623-3.275,3.785-3.275,6.482v0.15c0,1.4,0.301,2.637,0.903,3.711c0.603,1.076,1.417,1.986,2.447,2.736
			c1.028,0.75,2.221,1.324,3.576,1.725c1.355,0.4,2.76,0.6,4.216,0.6c1.958,0,3.813-0.287,5.571-0.861
			c1.756-0.574,3.299-1.375,4.63-2.398c1.329-1.025,2.383-2.264,3.162-3.713c0.777-1.449,1.167-3.047,1.167-4.797V120.667z"/>
		<path fill="#F8981D" d="M336.978,139.419v-22.811c0-3.965-1.054-7.141-3.162-9.523c-2.108-2.385-5.12-3.576-9.035-3.576
			c-1.908,0-3.664,0.338-5.27,1.016c-1.607,0.678-3.011,1.619-4.216,2.822c-1.205,1.205-2.146,2.648-2.823,4.33
			s-1.017,3.527-1.017,5.533v22.209h-3.689v-38.395h3.689v7.15c1.305-2.258,3.061-4.164,5.27-5.721
			c2.208-1.555,5.069-2.334,8.583-2.334c2.409,0,4.566,0.389,6.475,1.166c1.907,0.779,3.525,1.871,4.856,3.275
			c1.329,1.406,2.334,3.076,3.011,5.008c0.678,1.932,1.017,4.053,1.017,6.361v23.488H336.978z"/>
		<path fill="#F8981D" d="M388.205,141.226c-0.93,2.26-2.238,4.152-3.922,5.686c-1.686,1.529-3.686,2.697-6,3.5
			s-4.828,1.205-7.545,1.205c-6.488,0-12.371-1.984-17.649-5.947l2.184-3.012c4.679,3.613,9.86,5.42,15.546,5.42
			c2.213,0,4.238-0.313,6.076-0.936c1.836-0.623,3.42-1.559,4.754-2.805c1.332-1.248,2.377-2.793,3.131-4.637
			c0.756-1.844,1.133-3.996,1.133-6.455v-5.57c-0.854,1.205-1.807,2.334-2.859,3.389c-1.055,1.053-2.234,1.994-3.539,2.822
			c-1.307,0.828-2.762,1.48-4.367,1.957c-1.607,0.479-3.363,0.715-5.27,0.715c-2.309,0-4.568-0.426-6.775-1.279
			c-2.209-0.852-4.178-2.07-5.91-3.65c-1.731-1.582-3.124-3.475-4.179-5.686c-1.054-2.207-1.58-4.691-1.58-7.453v-0.15
			c0-2.76,0.526-5.27,1.58-7.527c1.055-2.26,2.447-4.18,4.179-5.76c1.732-1.582,3.701-2.797,5.91-3.652
			c2.207-0.852,4.467-1.279,6.775-1.279c1.906,0,3.676,0.238,5.307,0.715c1.631,0.479,3.1,1.105,4.404,1.883
			c1.305,0.779,2.484,1.693,3.539,2.748c1.055,1.053,1.982,2.133,2.785,3.236v-7.678h3.689v32.447
			C389.602,136.384,389.137,138.968,388.205,141.226z M386.139,118.265c0-2.209-0.453-4.217-1.359-6.023
			c-0.904-1.807-2.1-3.35-3.584-4.631c-1.486-1.279-3.184-2.258-5.094-2.936c-1.914-0.678-3.875-1.016-5.887-1.016
			c-2.014,0-3.924,0.338-5.736,1.016c-1.811,0.678-3.396,1.645-4.754,2.898c-1.359,1.256-2.428,2.773-3.208,4.555
			c-0.78,1.783-1.17,3.803-1.17,6.061v0.15c0,2.158,0.402,4.141,1.208,5.947c0.805,1.809,1.887,3.352,3.244,4.631
			s2.943,2.285,4.756,3.012c1.811,0.729,3.697,1.092,5.66,1.092c2.012,0,3.973-0.352,5.887-1.055
			c1.91-0.701,3.607-1.693,5.094-2.973c1.484-1.281,2.68-2.811,3.584-4.594c0.906-1.781,1.359-3.775,1.359-5.984V118.265z"/>
		<path fill="#F8981D" d="M406.471,128.095c0.906,1.848,2.037,3.42,3.396,4.719c1.357,1.299,2.906,2.287,4.643,2.961
			s3.559,1.01,5.473,1.01c3.018,0,5.572-0.576,7.66-1.73c2.09-1.154,3.939-2.586,5.549-4.293l2.561,2.26
			c-1.959,2.107-4.184,3.852-6.674,5.232c-2.49,1.379-5.57,2.07-9.244,2.07c-2.514,0-4.916-0.479-7.205-1.432
			c-2.289-0.951-4.303-2.307-6.037-4.064c-1.736-1.756-3.107-3.865-4.113-6.324s-1.51-5.195-1.51-8.207v-0.15
			c0-2.76,0.465-5.355,1.395-7.791c0.928-2.434,2.207-4.555,3.838-6.361c1.631-1.809,3.551-3.238,5.76-4.293
			c2.209-1.053,4.617-1.58,7.229-1.58c2.709,0,5.145,0.516,7.303,1.543c2.156,1.029,4.002,2.447,5.533,4.254
			c1.529,1.807,2.711,3.928,3.539,6.361c0.828,2.436,1.242,5.082,1.242,7.943v0.15c0,0.252,0,0.479,0,0.678
			c0,0.15-0.027,0.377-0.076,0.678h-31.846C405.035,124.125,405.564,126.248,406.471,128.095z M432.891,118.416
			c-0.152-1.957-0.541-3.826-1.17-5.609c-0.629-1.781-1.51-3.361-2.643-4.742s-2.529-2.484-4.189-3.313
			c-1.662-0.828-3.6-1.242-5.813-1.242c-1.912,0-3.699,0.375-5.359,1.129c-1.662,0.752-3.107,1.795-4.342,3.123
			c-1.232,1.332-2.252,2.912-3.057,4.744s-1.283,3.801-1.434,5.91H432.891z"/>
		<path fill="#F8981D" d="M484.764,86.72h10.012l-21.908,53.076h-8.131L442.828,86.72h10.238l15.887,40.504L484.764,86.72z"/>
		<path fill="#F8981D" d="M501.402,93.572v-8.658h9.861v8.658H501.402z M501.779,139.419v-39.75h9.184v39.75H501.779z"/>
		<path fill="#F8981D" d="M552.672,139.419v-6.625c-1.453,2.059-3.268,3.814-5.447,5.27c-2.178,1.455-4.869,2.184-8.072,2.184
			c-2.355,0-4.633-0.451-6.836-1.355c-2.203-0.902-4.156-2.244-5.859-4.027c-1.701-1.781-3.078-3.953-4.129-6.512
			c-1.053-2.561-1.578-5.496-1.578-8.809s0.514-6.248,1.539-8.809c1.027-2.561,2.391-4.73,4.094-6.512s3.668-3.125,5.896-4.029
			c2.229-0.902,4.518-1.354,6.873-1.354c3.254,0,5.957,0.703,8.109,2.107c2.154,1.406,3.957,3.037,5.41,4.893V84.46h9.184v54.959
			H552.672z M551.883,114.275c-0.625-1.557-1.463-2.898-2.514-4.029c-1.051-1.129-2.275-1.994-3.676-2.596
			c-1.4-0.604-2.852-0.904-4.352-0.904c-1.551,0-3.016,0.289-4.391,0.865c-1.377,0.578-2.59,1.42-3.641,2.523
			s-1.875,2.445-2.477,4.027c-0.6,1.58-0.898,3.375-0.898,5.383c0,1.957,0.299,3.727,0.898,5.307
			c0.602,1.582,1.426,2.926,2.477,4.029s2.264,1.957,3.641,2.559c1.375,0.604,2.84,0.904,4.391,0.904c1.5,0,2.951-0.301,4.352-0.904
			c1.4-0.602,2.625-1.467,3.676-2.598c1.051-1.129,1.889-2.471,2.514-4.027c0.627-1.555,0.939-3.313,0.939-5.27
			S552.51,115.832,551.883,114.275z"/>
		<path fill="#F8981D" d="M584.064,130.273c2.059,1.73,4.568,2.598,7.529,2.598c2.26,0,4.217-0.402,5.873-1.205
			s3.287-1.982,4.893-3.539l5.346,4.744c-1.908,2.258-4.178,4.064-6.813,5.42s-5.785,2.033-9.449,2.033
			c-2.861,0-5.533-0.502-8.018-1.506s-4.643-2.41-6.475-4.217c-1.834-1.807-3.275-3.977-4.33-6.512
			c-1.053-2.533-1.58-5.357-1.58-8.469c0-2.861,0.477-5.547,1.43-8.057s2.297-4.705,4.029-6.588c1.73-1.881,3.775-3.375,6.135-4.479
			s4.969-1.656,7.83-1.656c3.162,0,5.936,0.576,8.318,1.73c2.385,1.156,4.367,2.711,5.949,4.668c1.58,1.957,2.771,4.242,3.574,6.852
			s1.205,5.346,1.205,8.205c0,0.402-0.012,0.805-0.037,1.205c-0.025,0.402-0.064,0.828-0.113,1.279H580.15
			C580.703,126.044,582.006,128.541,584.064,130.273z M600.479,116.759c-0.15-1.455-0.479-2.824-0.979-4.104
			c-0.504-1.279-1.182-2.383-2.033-3.313c-0.854-0.928-1.871-1.668-3.049-2.221c-1.18-0.553-2.523-0.828-4.029-0.828
			c-2.811,0-5.131,0.967-6.963,2.898c-1.834,1.932-2.949,4.455-3.35,7.566H600.479z"/>
		<path fill="#F8981D" d="M657.279,127.599c-1.08,2.512-2.559,4.707-4.441,6.588c-1.883,1.883-4.129,3.377-6.738,4.48
			s-5.445,1.656-8.508,1.656c-3.01,0-5.809-0.541-8.393-1.619c-2.586-1.078-4.818-2.561-6.701-4.441
			c-1.883-1.883-3.35-4.066-4.404-6.551s-1.582-5.156-1.582-8.018s0.539-5.559,1.619-8.094c1.078-2.533,2.561-4.742,4.441-6.625
			c1.883-1.881,4.115-3.375,6.701-4.479c2.584-1.104,5.408-1.656,8.471-1.656c3.061,0,5.883,0.539,8.469,1.617
			c2.584,1.08,4.818,2.561,6.701,4.443c1.881,1.881,3.35,4.078,4.404,6.586c1.053,2.512,1.58,5.195,1.58,8.057
			S658.359,125.091,657.279,127.599z M648.816,114.726c-0.6-1.555-1.434-2.924-2.508-4.104c-1.072-1.178-2.344-2.107-3.814-2.785
			c-1.473-0.678-3.105-1.016-4.9-1.016c-1.797,0-3.43,0.338-4.902,1.016c-1.471,0.678-2.73,1.594-3.777,2.748
			s-1.846,2.498-2.395,4.027c-0.549,1.531-0.822,3.176-0.822,4.932c0,1.758,0.299,3.426,0.898,5.006
			c0.598,1.582,1.432,2.949,2.506,4.104c1.072,1.156,2.344,2.07,3.814,2.748c1.473,0.678,3.082,1.016,4.828,1.016
			c1.844,0,3.502-0.338,4.975-1.016c1.471-0.678,2.73-1.592,3.777-2.748c1.047-1.154,1.846-2.496,2.395-4.027
			s0.822-3.174,0.822-4.932C649.713,117.939,649.414,116.283,648.816,114.726z"/>
		<path fill="#F8981D" d="M695.412,133.171c-0.752,1.557-1.795,2.85-3.125,3.877c-1.33,1.029-2.898,1.807-4.705,2.334
			s-3.738,0.791-5.797,0.791c-2.861,0-5.76-0.502-8.695-1.506s-5.66-2.484-8.168-4.441l4.064-6.174
			c2.158,1.605,4.354,2.822,6.588,3.65c2.232,0.828,4.379,1.242,6.438,1.242c1.957,0,3.475-0.389,4.555-1.166
			c1.078-0.777,1.619-1.818,1.619-3.125v-0.15c0-0.752-0.24-1.404-0.717-1.957s-1.129-1.041-1.957-1.469
			c-0.828-0.426-1.781-0.803-2.859-1.129c-1.08-0.326-2.197-0.664-3.352-1.016c-1.455-0.453-2.924-0.953-4.404-1.506
			s-2.811-1.268-3.99-2.146c-1.18-0.877-2.145-1.957-2.898-3.236c-0.752-1.281-1.129-2.873-1.129-4.781v-0.15
			c0-1.857,0.363-3.539,1.092-5.045c0.727-1.506,1.73-2.785,3.012-3.84c1.279-1.053,2.785-1.855,4.518-2.408
			c1.73-0.553,3.576-0.828,5.533-0.828c2.508,0,5.043,0.402,7.604,1.203c2.561,0.805,4.893,1.908,7.002,3.314l-3.613,6.475
			c-1.908-1.154-3.84-2.07-5.799-2.748c-1.957-0.678-3.764-1.018-5.42-1.018c-1.758,0-3.125,0.377-4.104,1.129
			c-0.979,0.754-1.467,1.707-1.467,2.861v0.15c0,0.703,0.25,1.318,0.752,1.846c0.502,0.525,1.168,1.004,1.996,1.43
			c0.828,0.428,1.779,0.828,2.859,1.205s2.195,0.74,3.352,1.092c1.455,0.451,2.91,0.979,4.365,1.58
			c1.455,0.604,2.773,1.344,3.953,2.221c1.18,0.879,2.146,1.947,2.898,3.201c0.754,1.254,1.129,2.785,1.129,4.592v0.15
			C696.541,129.783,696.166,131.617,695.412,133.171z"/>
	</g>
</g>
</svg>
