<?xml version="1.0" encoding="utf-8"?>
<!-- Generator: Adobe Illustrator 16.0.0, SVG Export Plug-In . SVG Version: 6.00 Build 0)  -->
<!DOCTYPE svg PUBLIC "-//W3C//DTD SVG 1.1//EN" "http://www.w3.org/Graphics/SVG/1.1/DTD/svg11.dtd">
<svg version="1.1" id="Layer_1" xmlns="http://www.w3.org/2000/svg" xmlns:xlink="http://www.w3.org/1999/xlink" x="0px" y="0px"
	 width="300px" height="300px" viewBox="0 0 300 300" enable-background="new 0 0 300 300" xml:space="preserve">
<g>
	<path fill="#F8981D" d="M121.972,180.243c2.378-7.861,4.509-15.628,7.095-23.241c2.628-7.752,5.993-15.209,11.703-21.302
		c3.378-3.601,7.303-6.087,12.567-5.337c4.101,0.584,6.935,3.077,9.294,6.222c5.451,7.287,8.326,15.743,10.307,24.447
		c2.027,8.91,3.444,17.961,5.136,26.948c0.036,0.217,0.166,0.418,0.419,1.022c0.578-1.105,1.033-1.924,1.443-2.762
		c3.836-7.813,8.407-15.115,16.248-19.449c3.279-1.811,7.068-2.809,10.735-3.75c2.233-0.579,3.952,0.973,4.345,3.098
		c0.373,2.073-0.775,3.988-3.093,4.37c-9.187,1.5-14.76,7.521-19.114,15.07c-4.41,7.658-6.935,15.99-8.568,24.632
		c-0.496,2.644-1.93,4.008-4.038,3.987c-2.168-0.025-3.638-1.599-3.91-4.056c-0.972-8.854-1.763-17.742-3.021-26.562
		c-1.687-11.785-4.022-23.468-8.597-34.54c-1.256-3.036-2.999-5.953-4.97-8.59c-2.385-3.187-5.48-3.444-8.413-0.714
		c-2.038,1.902-3.833,4.205-5.225,6.624c-5.471,9.553-8.646,20.015-11.035,30.656c-2.441,10.871-4.293,21.871-6.309,32.83
		c-0.523,2.851-1.873,4.447-4.189,4.35c-2.312-0.093-3.651-1.8-3.786-4.686c-0.961-20.243-4.313-40.05-11.057-59.193
		c-4.648-13.219-10.902-25.589-20.391-36.087c-8.963-9.92-19.751-16.781-32.965-19.533c-0.568-0.119-1.143-0.237-1.695-0.403
		c-2.183-0.646-3.356-2.488-2.942-4.567c0.403-2.017,2.316-3.558,4.488-2.927c5.895,1.712,11.968,3.155,17.47,5.751
		c16.275,7.674,27.259,20.785,35.513,36.388c8.125,15.375,12.888,31.877,16.017,48.907
		C121.579,178.635,121.785,179.416,121.972,180.243z"/>
	<path fill="#F8981D" d="M241.621,141.777c13.426,0.242,23.721,10.912,23.521,24.374c-0.192,12.624-11.213,23.329-23.83,23.162
		c-13.355-0.176-23.92-11.148-23.691-24.596C217.842,152.109,228.889,141.549,241.621,141.777z M225.521,165.354
		c-0.051,8.959,6.936,16.054,15.871,16.12c8.688,0.073,15.914-7.121,15.928-15.846c0.012-8.952-7.069-16.14-15.906-16.14
		C232.646,149.482,225.568,156.547,225.521,165.354z"/>
</g>
</svg>
