<?xml version="1.0" encoding="utf-8"?>
<!-- Generator: Adobe Illustrator 16.0.0, SVG Export Plug-In . SVG Version: 6.00 Build 0)  -->
<!DOCTYPE svg PUBLIC "-//W3C//DTD SVG 1.1//EN" "http://www.w3.org/Graphics/SVG/1.1/DTD/svg11.dtd">
<svg version="1.1" id="Layer_1" xmlns="http://www.w3.org/2000/svg" xmlns:xlink="http://www.w3.org/1999/xlink" x="0px" y="0px"
	 width="300px" height="300px" viewBox="0 0 300 300" enable-background="new 0 0 300 300" xml:space="preserve">
<g>
	<path fill="#F8981D" d="M175.495,124.723h7.073v7.074h-7.073V124.723z"/>
	<path fill="#F8981D" d="M251.795,228.532c-1.797-4.786-5.564-8.564-10.348-10.351l-4.01-1.504
		c-11.258-4.209-20.99-11.684-27.967-21.467c-4.65-6.499-12.15-10.359-20.142-10.365h-48.951c1.771-12.175,12.207-21.203,24.5-21.22
		l14.508-0.021l15.204-1.52c13.171-1.289,22.997-12.72,22.282-25.934l-2.565-48.806l-31.543-19.722l-31.035,15.518
		c-8.982,4.44-19.763,2.998-27.259-3.65l58.216-35.578l50.271,26.811l20.717,41.43l6.323-3.156l-21.724-43.448l-55.828-29.777
		L113.64,77.82l2.505,3.141c1.447,1.797,3.101,3.424,4.907,4.861H44.641c-5.862,0-10.611,4.748-10.611,10.61v63.657
		c0,5.856,4.749,10.61,10.611,10.61h93.793c-3.512,5.225-5.385,11.385-5.379,17.684v3.536h56.275
		c5.713,0.005,11.066,2.763,14.387,7.401c7.787,10.93,18.664,19.279,31.231,23.978l4.014,1.504c2.864,1.078,5.128,3.343,6.201,6.206
		l8.346,22.283l6.634-2.473L251.795,228.532z M189.643,155.491l-10.615,1.063h-10.605V92.892h17.686
		c1.944,0,3.537,1.586,3.537,3.542v59.057H189.643z M182.373,75.727l25.05,15.656l2.378,45.141
		c0.44,8.332-5.025,15.826-13.086,17.966V96.434c0-5.862-4.752-10.61-10.609-10.61H162.18L182.373,75.727z M62.323,163.627H44.641
		c-1.951,0-3.537-1.587-3.537-3.536V96.434c0-1.956,1.586-3.542,3.537-3.542h17.683L62.323,163.627L62.323,163.627z M69.393,163.627
		V92.892h91.957v63.872c-6.018,0.668-11.721,3.051-16.428,6.863H69.393z"/>
	<path fill="#F8981D" d="M104.76,149.019l31.123-20.759l-31.123-20.753V149.019z M111.833,120.724l11.319,7.535l-11.319,7.536
		V120.724z"/>
</g>
</svg>
