<?xml version="1.0" encoding="utf-8"?>
<!-- Generator: Adobe Illustrator 16.0.0, SVG Export Plug-In . SVG Version: 6.00 Build 0)  -->
<!DOCTYPE svg PUBLIC "-//W3C//DTD SVG 1.1//EN" "http://www.w3.org/Graphics/SVG/1.1/DTD/svg11.dtd">
<svg version="1.1" id="Layer_1" xmlns="http://www.w3.org/2000/svg" xmlns:xlink="http://www.w3.org/1999/xlink" x="0px" y="0px"
	 width="300px" height="300px" viewBox="0 0 300 300" enable-background="new 0 0 300 300" xml:space="preserve">
<g>
	<g>
		<path fill="#F8981D" d="M233.184,165.005c-0.793-0.792-1.881-1.237-2.994-1.237c-1.111,0-2.213,0.445-2.991,1.237
			c-0.796,0.797-1.25,1.886-1.25,2.999c0,1.125,0.454,2.208,1.25,2.984c0.778,0.802,1.88,1.253,2.991,1.253
			c1.113,0,2.201-0.451,2.994-1.253c0.785-0.776,1.241-1.859,1.241-2.984C234.425,166.891,233.969,165.797,233.184,165.005z"/>
	</g>
</g>
<path fill="#F8981D" d="M233.898,157.061c-15.688,0.006-31.379,0.006-47.069,0c-7.709-0.004-12.198-4.44-12.208-12.131
	c-0.02-16.909-0.02-38.817,0.006-55.73c0.009-6.8,4.682-11.514,11.514-11.519c31.803-0.028,63.601-0.028,95.405,0
	c6.726,0.005,11.401,4.63,11.406,11.317c0.005,9.134-0.201,23.277-0.201,32.411c0,7.611,0.046,15.227,0.294,22.833
	c0.278,8.505-5.486,13.079-12.867,12.92C264.759,156.832,249.327,157.061,233.898,157.061z M233.764,150.29
	c15.592,0,31.188,0.005,46.774-0.004c4.162,0,5.491-1.354,5.53-5.413c0.089-8.848,0.271-17.695,0.275-26.543
	c0.01-7.653-0.169-20.306-0.248-27.954c-0.048-4.583-1.32-5.877-5.919-5.877c-30.737,0-61.476,0.005-92.214,0.009
	c-5.395,0-6.494,1.158-6.494,6.655c0,16.032-0.011,37.06-0.044,53.087c-0.01,4.588,1.41,6.041,6.079,6.041
	C202.927,150.29,218.346,150.29,233.764,150.29z"/>
<path fill="#F8981D" d="M266.372,113.595c0,2.381,0,4.442,0,6.65c-21.699,0-43.247,0-64.991,0c0-2.216,0-4.33,0-6.65
	C223.003,113.595,244.622,113.595,266.372,113.595z"/>
<path fill="#F8981D" d="M201.291,104.367c0-2.216,0-4.284,0-6.58c21.572,0,43.102,0,64.943,0c0,2.052,0,4.232,0,6.58
	C244.688,104.367,223.13,104.367,201.291,104.367z"/>
<path fill="#F8981D" d="M266.372,129.528c0,2.175,0,4.223,0,6.453c-21.675,0-43.242,0-64.991,0c0-2.114,0-4.161,0-6.453
	C222.975,129.528,244.604,129.528,266.372,129.528z"/>
<path fill="#F8981D" d="M230.188,179.725c-2.334,0-4.24,1.896-4.24,4.237v18.632h-72.86v-0.351h-8.468v0.351H71.76v-0.351h-8.478
	v0.351H48.881V90.816c0-1.805,1.48-3.281,3.309-3.281h107.242c2.336,0,4.242-1.898,4.242-4.236c0-2.343-1.906-4.237-4.242-4.237
	H52.189c-6.494,0-11.781,5.272-11.781,11.754v118.532h194.017v-25.386C234.425,181.619,232.521,179.725,230.188,179.725z"/>
<path fill="#F8981D" d="M116.407,194.741c-0.005-6.888,0.031-13.773-0.062-20.659c-0.022-1.617,0.525-2.487,1.918-3.268
	c5.703-3.176,11.354-6.455,17.001-9.736c3.998-2.325,5.779-5.816,5.582-10.456c-0.033-0.806,0.581-1.926,1.25-2.437
	c5.804-4.461,11.694-8.806,17.538-13.211c3.294-2.484,3.444-3.73,0.933-7.104c-0.359-0.493-0.717-0.989-1.098-1.462
	c-1.724-2.16-3.393-2.456-5.617-0.811c-6.654,4.921-13.259,9.917-19.918,14.828c-0.712,0.525-1.662,0.769-2.534,1.026
	c-2.46,0.717-5.128,1.003-7.372,2.128c-4.505,2.268-8.865,4.86-13.121,7.567c-1.922,1.225-3.361,1.346-5.049-0.178
	c-0.688-0.623-1.625-0.975-2.68-1.579c3.697-5.943,4.836-12.264,2.536-18.942c-1.524-4.415-4.289-7.948-8.198-10.535
	c-8.027-5.314-18.374-4.423-25.573,2.016c-7.694,6.884-8.716,16.763-2.863,27.94c-1.378,0.988-2.85,1.895-4.151,2.999
	c-5.464,4.636-7.973,10.623-7.968,17.733c0.005,9.241-0.014,18.479-0.022,27.715c0,0.854,0,1.729,0,2.727h6.931
	c0.027-10.169-0.009-20.333,0.023-30.497c0.004-1.551,0.056-3.169,0.474-4.64c1.701-5.971,5.77-9.477,11.683-11.188
	c1.176-0.339,2.493-1.636,2.878-2.789c0.295-0.881-0.451-2.586-1.275-3.294c-4.924-4.246-6.954-9.425-4.859-15.639
	c2.058-6.111,6.49-9.241,13.112-9.597c5.62-0.305,11.144,3.599,12.911,8.365c2.441,6.584,1.098,11.575-4.02,16.539
	c-0.916,0.885-1.736,2.667-1.463,3.744c0.271,1.073,1.86,2.265,3.079,2.56c3.294,0.811,6.29,1.996,8.716,4.425
	c1.434,1.43,3.042,1.536,4.762,0.543c0.604-0.353,1.209-0.698,1.809-1.046c5.587-3.213,11.103-6.551,16.806-9.541
	c1.158-0.604,3.43-0.431,4.433,0.348c1.374,1.073,1.523,3.126,0.16,4.7c-0.553,0.633-1.347,1.092-2.091,1.522
	c-6.246,3.631-12.483,7.272-18.772,10.836c-1.764,0.998-2.658,2.244-2.645,4.36c0.062,10.097,0.019,20.194,0.028,30.288h6.796
	C116.412,198.82,116.412,196.775,116.407,194.741z"/>
</svg>
