<?xml version="1.0" encoding="utf-8"?>
<!-- Generator: Adobe Illustrator 16.0.0, SVG Export Plug-In . SVG Version: 6.00 Build 0)  -->
<!DOCTYPE svg PUBLIC "-//W3C//DTD SVG 1.1//EN" "http://www.w3.org/Graphics/SVG/1.1/DTD/svg11.dtd">
<svg version="1.1" id="Layer_1" xmlns="http://www.w3.org/2000/svg" xmlns:xlink="http://www.w3.org/1999/xlink" x="0px" y="0px"
	 width="300px" height="300px" viewBox="0 0 300 300" enable-background="new 0 0 300 300" xml:space="preserve">
<path fill="none" d="M194.541,183.139c0.006-2.385,0.011-4.771-0.009-7.156c-0.058-7.678-5.646-13.264-13.285-13.284
	c-13.638-0.033-27.281-0.033-40.921,0c-7.683,0.019-13.27,5.604-13.289,13.282c-0.033,13.78-0.033,27.55,0,40.924
	c0.02,7.678,5.606,13.265,13.285,13.285c6.966,0.016,13.935,0.024,20.905,0.024c6.672,0,13.344-0.007,20.016-0.026
	c7.652-0.02,13.24-5.604,13.287-13.276c0.029-4.642,0.021-9.285,0.015-13.929l-0.007-6.277L194.541,183.139z M193.468,216.906
	c-0.044,7.063-5.187,12.203-12.229,12.222c-13.64,0.039-27.278,0.034-40.916,0.001c-7.066-0.018-12.207-5.16-12.225-12.227
	c-0.035-13.372-0.035-27.141,0-40.918c0.016-7.065,5.16-12.207,12.229-12.225c6.874-0.016,13.746-0.025,20.618-0.025
	c6.767,0,13.533,0.009,20.299,0.025c7.031,0.018,12.172,5.163,12.227,12.231c0.02,2.383,0.014,4.764,0.01,7.146l-0.006,3.213
	l0.008,16.635C193.489,207.626,193.495,212.266,193.468,216.906z"/>
<path fill="none" d="M160.813,170.998h-0.06l-0.058-0.084c-0.768,0.15-1.538,0.189-2.31,0.327c-1.751,0.308-3.563,0.627-5.303,1.13
	c-1.213,0.35-2.188,1.123-2.75,2.177c-0.584,1.097-0.681,2.39-0.277,3.646c0.598,1.859,2.32,3.063,4.387,3.063
	c0.402,0,0.815-0.047,1.224-0.137c0.341-0.076,0.681-0.165,1.021-0.253c0.408-0.108,0.816-0.214,1.23-0.296
	c0.96-0.192,1.946-0.29,2.928-0.29c8.039,0,15.061,6.257,15.983,14.245c0.514,4.449-0.894,8.99-3.865,12.459
	c-2.88,3.365-6.973,5.391-11.229,5.559c-5.39,0.221-10.299-1.957-13.456-5.896c-3.128-3.906-4.245-9.181-3.063-14.47
	c0.745-3.338-0.384-5.676-3.097-6.413c-0.402-0.109-0.81-0.166-1.213-0.166c-2.311,0-4.122,1.783-4.51,4.436
	c-0.505,3.453-0.958,7.119-0.44,10.631c1.777,12.066,12.365,21.167,24.627,21.166c0.833,0,1.676-0.045,2.503-0.132
	c13.578-1.433,23.688-13.032,23.016-26.534C185.439,181.902,174.331,170.998,160.813,170.998z M162.975,220.76
	c-0.789,0.082-1.595,0.24-2.392,0.24c-0.001,0-0.002,0-0.002,0c-11.738,0-21.873-8.826-23.572-20.378
	c-0.497-3.366-0.055-7.06,0.44-10.437c0.313-2.143,1.67-3.526,3.459-3.526c0.31,0,0.623,0.043,0.936,0.128
	c2.862,0.777,2.693,3.564,2.338,5.156c-1.253,5.606-0.061,11.207,3.271,15.365c3.367,4.205,8.615,6.521,14.326,6.295
	c4.551-0.181,8.922-2.34,11.992-5.928c3.164-3.691,4.662-8.529,4.114-13.273c-0.983-8.516-8.468-15.185-17.038-15.185
	c-1.053,0-2.108,0.105-3.137,0.312c-0.434,0.086-0.861,0.199-1.29,0.31c-0.327,0.085-0.653,0.171-0.981,0.243
	c-1.986,0.439-3.817-0.491-4.371-2.214c-0.315-0.979-0.242-1.981,0.203-2.821c0.431-0.809,1.16-1.382,2.107-1.654
	c1.686-0.487,3.469-0.801,5.191-1.104c0.759-0.134,1.518-0.269,2.272-0.416c12.94,0.356,23.564,10.618,24.198,23.31
	C185.686,208.117,175.993,219.385,162.975,220.76z"/>
<path fill="none" d="M78.456,82.338c-0.001-0.487-0.069-0.941-0.134-1.39c-0.026-0.186-0.052-0.345-0.072-0.521L78.196,80h-8.827
	l-0.106,0.346c-0.033,0.113-0.067,0.17-0.097,0.261c-0.074,0.22-0.145,0.427-0.146,0.67c-0.016,9.326-0.026,18.653-0.011,27.981
	c0.001,0.706,0.143,1.403,0.396,1.964c0.844,1.876,2.308,2.908,4.124,2.908c0.342,0,0.702-0.037,1.065-0.11
	c2.5-0.504,3.876-2.28,3.874-5.006c-0.004-3.905-0.004-7.807-0.004-11.712C78.464,92.312,78.464,87.327,78.456,82.338z
	 M74.384,112.979c-0.295,0.06-0.583,0.091-0.856,0.091c-1.76,0-2.686-1.239-3.155-2.281c-0.195-0.428-0.302-0.969-0.304-1.528
	c-0.014-9.325-0.005-18.645,0.011-27.969c0-0.064,0.037-0.292,0.08-0.292h7.097c0.005,0,0.011,0.056,0.016,0.091
	c0.06,0.413,0.121,0.827,0.122,1.238c0.007,4.988,0.007,9.977,0.006,14.966c0,3.906,0,7.811,0.004,11.717
	C77.407,111.239,76.391,112.575,74.384,112.979z"/>
<path fill="none" d="M243,88.374c0,6.731,0.047,13.362,0.055,19.991c0.004,3.566,1.732,5.664,4.651,5.752l0.178,0.005
	c2.931,0,4.683-2.153,4.688-5.766c0.012-8.551,0.009-17.093,0-25.644c0-0.515-0.047-1.015-0.096-1.552
	c-0.023-0.248-0.045-0.471-0.064-0.732L252.377,80H243V88.374z M244,81.001h7.393c0.008,0,0.018,0.162,0.026,0.259
	c0.046,0.504,0.09,0.954,0.092,1.438c0.009,8.55,0.011,17.099,0,25.649c-0.004,1.759-0.479,4.71-3.628,4.71l-0.146-0.003
	c-2.944-0.089-3.646-2.6-3.65-4.69C244.078,101.735,244,95.107,244,88.375V81.001z"/>
<path fill="#F8981D" d="M280.887,56.101c-0.295-0.02-0.593,0.43-0.891,0.43L278.593,57h-26.729l-0.137-0.782
	c-0.095-0.229-0.181-0.671-0.262-0.876c-0.16-0.404-0.302-0.879-0.479-1.224c-0.812-1.582-2.049-2.316-3.68-2.04
	c-1.74,0.298-2.771,1.39-2.981,3.212c-0.074,0.637,0.295,1.269,0.309,1.953c0.007,0.273,0.367,0.533,0.367,0.805v14.48l-1.642,0.082
	c-0.409,0.029-0.912,0.052-1.238,0.058c-5.275,0.1-6.12,0.767-6.12,5.951V93.75l-0.479,0.047c-3.33,0.332-6.635,0.67-9.922,1.007
	c-7.377,0.756-15.004,1.538-22.476,2.186c-8.375,0.726-8.375,0.726-9.147,8.793l-0.021,0.265
	c-1.379,13.22-10.334,22.873-22.814,24.454c-2.205,0.28-4.646,0.498-7.685,0.498c0,0-0.001,0-0.002,0
	c-1.526,0-3.06-0.118-4.593-0.149c-1.523-0.031-3.047-0.105-4.566-0.105l-0.713-0.02c-6.175,0-11.252-1.74-15.092-5.15
	c-2.559-2.271-4.779-3.204-7.663-3.204c-0.942,0-1.967,0.099-3.132,0.307c-12.533,2.238-22.533,12.142-23.779,23.55
	c-0.791,7.23-0.586,14.708-0.387,21.938l0.041,1.506c0.062,2.306,1.118,4.677,2.138,6.968l0.181,0.404
	c0.933,2.102,2.92,2.91,4.828,1.995c2.328-1.116,2.036-3.526,1.381-5.351c-0.975-2.72-1.491-5.047-1.581-7.114
	c-0.18-4.193-0.137-8.46-0.094-12.585c0.01-1.08,0.021-2.159,0.028-3.238c0.07-10.784,8.107-19.834,18.695-21.052
	c1.376-0.16,3.145,0.348,4.346,1.206c4.527,3.235,8.476,5.484,13.033,5.943c6.999,0.707,14.042,0.82,20.853,0.931l0.55,0.005
	c7.141,0,13.906-2.315,20.104-6.879c1.167-0.858,2.952-1.368,4.353-1.211c10.588,1.188,18.639,10.223,18.729,21.017
	c0.009,1.082,0.026,2.165,0.043,3.248c0.057,3.533,0.114,7.187-0.11,10.772c-0.199,3.213-0.982,6.384-1.767,9.354
	c-0.339,1.282-0.589,3.604,1.552,4.738c0.559,0.295,1.16,0.45,1.742,0.45c1.222,0,2.271-0.664,2.88-1.824
	c0.987-1.885,2.104-4.02,2.228-6.032c0.455-7.438,0.52-14.94,0.523-20.647c0.008-11.375-7.128-21.882-17.757-26.145
	c-0.944-0.378-1.923-0.702-2.71-0.962c-0.326-0.107-0.623-0.206-0.874-0.293l-0.479-0.167l5.707-18.963L236,100.867v0.586
	c0,1.011-0.004,1.974-0.016,2.905c-0.019,1.923-0.035,3.739,0.041,5.526c0.261,6.241,5.345,11.225,11.574,11.347l0.229,0.002
	c6.371,0,11.651-4.979,11.774-11.098c0.185-9.269,0.133-18.701,0.084-27.822l-0.029-5.838c-0.012-3.018-2.143-3.73-3.928-3.796
	c-0.795-0.031-1.596-0.358-2.433-0.351c-0.401,0.004-0.813-0.328-1.237-0.328H251v-8.804l21.334,0.009
	c2.668,0,5.468-0.006,8.135-0.029c2.307-0.02,3.993-1.463,4.01-3.51C284.495,57.715,283.057,56.249,280.887,56.101z M252.377,80
	l0.035,0.428c0.02,0.261,0.041,0.484,0.064,0.732c0.049,0.537,0.096,1.037,0.096,1.552c0.009,8.551,0.012,17.093,0,25.644
	c-0.006,3.613-1.758,5.766-4.688,5.766l-0.178-0.005c-2.919-0.088-4.647-2.186-4.651-5.752c-0.008-6.629-0.055-13.26-0.055-19.991
	V80H252.377z"/>
<path fill="#F8981D" d="M201.646,176.341c-0.037-12.007-8.748-20.733-20.713-20.753c-6.846-0.011-13.69-0.018-20.537-0.018
	c-6.53,0-13.061,0.006-19.591,0.018c-12.076,0.02-20.857,8.783-20.878,20.837c-0.024,13.376-0.019,26.751-0.001,40.128
	c0.017,12,8.725,20.728,20.707,20.752c13.461,0.025,26.926,0.021,40.387,0c11.729-0.019,20.596-8.865,20.627-20.578
	c0.012-4.588,0.008-9.178,0.004-13.767l-0.002-6.428l0.004-5.587C201.656,186.078,201.66,181.209,201.646,176.341z M194.529,216.911
	c-0.047,7.673-5.635,13.257-13.287,13.276c-6.672,0.02-13.344,0.026-20.016,0.026c-6.97,0-13.938-0.009-20.905-0.024
	c-7.679-0.021-13.265-5.607-13.285-13.285c-0.033-13.374-0.033-27.144,0-40.924c0.019-7.678,5.606-13.264,13.289-13.282
	c13.64-0.033,27.283-0.033,40.921,0c7.64,0.021,13.228,5.606,13.285,13.284c0.02,2.386,0.015,4.771,0.009,7.156l-0.004,13.566
	l0.007,6.277C194.551,207.626,194.559,212.27,194.529,216.911z"/>
<path fill="#F8981D" d="M120.241,104.357l0.706,4.956c0.339,2.372,1.867,3.786,3.879,3.615c0.963-0.085,1.775-0.501,2.349-1.204
	c0.667-0.817,0.955-1.963,0.812-3.229c-0.229-2.015-0.502-4.025-0.774-6.035l-0.188-1.396c-0.293-2.157-1.462-3.308-3.576-3.52
	c-3.384-0.339-6.768-0.669-10.151-1c-3.829-0.374-7.658-0.748-11.485-1.134c-3.598-0.362-7.192-0.743-10.839-1.13l-5.4-0.571
	l0.005-5.47c0.006-3.825,0.011-7.559-0.014-11.293c-0.019-2.928-1.289-4.206-4.245-4.273c-0.406-0.009-1.028-0.012-1.439-0.012
	L77,72.669v-9.475l22.83,0.014c2.162,0,4.433-0.007,6.595-0.031c2.308-0.026,3.966-1.483,3.955-3.545
	c-0.01-2.021-1.567-3.442-3.919-3.538c-0.277-0.011-0.54,0.44-0.817,0.44L104.178,57h-26.42l-0.135-0.784
	c-1.411-3.426-2.866-4.05-3.838-4.05c-0.204,0-0.413-0.093-0.628-0.053c-1.388,0.254-2.565,1.002-2.567,5
	C70.586,60.668,71,64.168,71,67.819v4.714l-1.686,0.078c-0.443,0.029-0.991,0.052-1.333,0.057c-5.229,0.088-5.993,0.761-5.994,6
	l-0.053,5.728c-0.004,8.021-0.032,15.926-0.022,23.947C61.924,115.673,66.819,121,73.588,121h0.132
	c6.831,0,11.814-5.245,11.851-12.63c0.008-1.511,0.005-2.965,0.002-4.527l-0.002-2.999l6.532,0.659
	c3.741,0.369,7.354,0.731,10.968,1.094c3.855,0.388,7.711,0.791,11.592,1.189L120.241,104.357z M74.594,114.02
	c-0.363,0.073-0.723,0.11-1.065,0.11c-1.816,0-3.28-1.032-4.124-2.908c-0.253-0.561-0.395-1.258-0.396-1.964
	c-0.015-9.328-0.005-18.655,0.011-27.981c0.001-0.243,0.072-0.45,0.146-0.67c0.03-0.091,0.064-0.148,0.097-0.261L69.369,80h8.827
	l0.054,0.428c0.02,0.175,0.046,0.334,0.072,0.521c0.065,0.449,0.133,0.903,0.134,1.39c0.008,4.989,0.008,9.974,0.008,14.964
	c0,3.905,0,7.807,0.004,11.712C78.47,111.74,77.094,113.516,74.594,114.02z"/>
<path fill="#F8981D" d="M103.895,80.964c-1.543,0-3.084,0.002-4.626,0.011c-2.534,0.014-4.187,1.392-4.209,3.512
	c-0.009,0.945,0.312,1.774,0.926,2.398c0.738,0.749,1.879,1.164,3.21,1.17c7.857,0.035,15.714,0.033,23.567,0.003
	c2.542-0.01,4.035-1.29,4.204-3.604c0.244-3.316,1.909-5.813,4.949-7.419c3.116-1.647,5.888-2.756,8.475-3.391
	c6.243-1.531,12.852-2.308,19.641-2.308c4.587,0,9.381,0.354,14.248,1.053c5.288,0.759,10.364,2.558,14.198,4.04
	c3.767,1.456,5.942,4.42,6.129,8.349c0.101,2.049,1.521,3.243,3.896,3.276c2.776,0.039,5.556,0.029,8.328,0.021
	c1.192-0.003,2.387-0.007,3.581-0.007l7.012,0.004c1.463,0,2.924-0.001,4.385-0.007c2.979-0.011,4.693-1.301,4.699-3.54
	c0.004-0.954-0.292-1.736-0.88-2.327c-0.796-0.801-2.108-1.227-3.794-1.23l-2.813-0.002l-6.174,0.003
	c-3.05,0-6.101-0.007-9.149-0.045c-0.763-0.011-2.457-0.323-2.837-1.225c-3.375-8.002-10.631-10.927-17.284-12.734
	c-6.491-1.761-13.606-2.617-21.757-2.617c-2.709,0-5.541,0.091-8.652,0.278c-6.51,0.392-14.124,1.213-21.251,4.335
	c-5.693,2.496-9.228,5.806-11.119,10.417c-0.377,0.913-1.953,1.516-2.872,1.53c-3.158,0.051-6.284,0.058-9.191,0.058L103.895,80.964
	z"/>
<path fill="#F8981D" d="M64.841,59.703c0.013-1.071-0.288-1.927-0.896-2.544c-0.677-0.689-1.735-1.055-3.061-1.06
	c-3.334-0.013-6.666-0.02-9.998-0.02c-3.214,0-6.429,0.007-9.643,0.022c-2.525,0.013-4.184,1.381-4.222,3.487
	c-0.017,0.941,0.288,1.761,0.881,2.371c0.77,0.79,1.969,1.215,3.469,1.229c1.265,0.012,2.529,0.016,3.794,0.016l5.765-0.008
	l5.964,0.007c1.285,0,2.57-0.003,3.854-0.012C63.355,63.173,64.81,61.934,64.841,59.703z"/>
<path fill="#F8981D" d="M215.309,63.184c1.262,0.016,2.525,0.021,3.789,0.021l5.764-0.011c1.01,0,2.021,0.003,3.029,0.007
	c2.348,0.009,4.694,0.018,7.039-0.021c2.373-0.038,3.949-1.389,4.016-3.442c0.029-0.947-0.283-1.79-0.905-2.437
	c-0.733-0.763-1.849-1.187-3.136-1.196c-6.543-0.043-13.088-0.039-19.629-0.003c-2.485,0.014-4.149,1.443-4.14,3.554
	C211.146,61.768,212.782,63.153,215.309,63.184z"/>
<path fill="#F8981D" d="M160.843,171.872c-0.755,0.147-1.514,0.282-2.272,0.416c-1.723,0.304-3.506,0.617-5.191,1.104
	c-0.947,0.272-1.677,0.846-2.107,1.654c-0.445,0.84-0.519,1.842-0.203,2.821c0.554,1.723,2.385,2.653,4.371,2.214
	c0.328-0.072,0.654-0.158,0.981-0.243c0.429-0.11,0.856-0.224,1.29-0.31c1.028-0.206,2.084-0.312,3.137-0.312
	c8.57,0,16.055,6.669,17.038,15.185c0.548,4.744-0.95,9.582-4.114,13.273c-3.07,3.588-7.441,5.747-11.992,5.928
	c-5.711,0.227-10.959-2.09-14.326-6.295c-3.332-4.158-4.524-9.759-3.271-15.365c0.355-1.592,0.524-4.379-2.338-5.156
	c-0.313-0.085-0.626-0.128-0.936-0.128c-1.789,0-3.146,1.384-3.459,3.526c-0.495,3.377-0.937,7.07-0.44,10.437
	C138.708,212.174,148.843,221,160.581,221c0,0,0.001,0,0.002,0c0.797,0,1.603-0.158,2.392-0.24
	c13.019-1.375,22.711-12.643,22.066-25.578C184.407,182.49,173.783,172.229,160.843,171.872z"/>
</svg>
