<?xml version="1.0" encoding="utf-8"?>
<!-- Generator: Adobe Illustrator 16.0.0, SVG Export Plug-In . SVG Version: 6.00 Build 0)  -->
<!DOCTYPE svg PUBLIC "-//W3C//DTD SVG 1.1//EN" "http://www.w3.org/Graphics/SVG/1.1/DTD/svg11.dtd">
<svg version="1.1" id="Layer_1" xmlns="http://www.w3.org/2000/svg" xmlns:xlink="http://www.w3.org/1999/xlink" x="0px" y="0px"
	 width="300px" height="300px" viewBox="0 0 300 300" enable-background="new 0 0 300 300" xml:space="preserve">
<path fill="#F8981D" d="M121.36,147.267c2.132-1.344,3.564-3.71,3.564-6.42c0-2.085-0.845-3.979-2.211-5.355l0.114,3.995
	l-4.662,0.133c0.396,0.278,0.67,0.708,0.67,1.228c0,0.838-0.684,1.521-1.521,1.521h-3.046H92.964h-3.046
	c-0.835,0-1.521-0.683-1.521-1.521c0-0.841,0.683-1.519,1.521-1.519h25.546l-0.177-6.091h-8.625v-18.829
	c3.533-1.252,6.088-4.608,6.088-8.565c0-5.038-4.1-9.137-9.134-9.137c-5.038,0-9.131,4.099-9.131,9.137
	c0,3.957,2.552,7.313,6.088,8.565v18.829h-8.831l-0.398,5.402l-7.338-0.547l0.162-2.176c-1.145,1.334-1.86,3.042-1.86,4.931
	c0,2.71,1.43,5.073,3.564,6.42c-0.323,0.847-0.519,1.755-0.519,2.71c0,2.458,1.186,4.622,2.993,6.01v63.292l15.222,26.638
	l15.217-26.638v-63.214c1.869-1.385,3.097-3.586,3.097-6.088C121.882,149.02,121.683,148.114,121.36,147.267z M103.617,102.797
	c1.679,0,3.046,1.363,3.046,3.046c0,1.677-1.367,3.046-3.046,3.046c-1.679,0-3.042-1.369-3.042-3.046
	C100.574,104.16,101.938,102.797,103.617,102.797z M103.569,233.639l-6.933-12.127h13.863L103.569,233.639z M100.523,215.42h-6.085
	v-57.829h6.085H112.7v57.829h-6.088 M114.269,148.456c0.842,0,1.522,0.687,1.522,1.521c0,0.837-0.68,1.521-1.522,1.521H92.964
	c-0.838,0-1.525-0.684-1.525-1.521c0-0.835,0.687-1.521,1.525-1.521"/>
<path fill="#F8981D" d="M136.355,75.584c6.358,7.635,9.831,17.143,9.831,27.207c0,11.38-4.435,22.076-12.484,30.126l4.305,4.308
	c9.201-9.194,14.267-21.429,14.267-34.434c0-11.118-3.729-21.641-10.667-30.338l5.61-1.126l-1.198-5.968l-12.082,2.426
	l-7.151,11.912l5.221,3.131L136.355,75.584z"/>
<path fill="#F8981D" d="M70.776,129.998c-6.354-7.635-9.824-17.149-9.824-27.207c0-11.39,4.431-22.09,12.481-30.136
	c12.044-12.048,30.072-15.757,45.909-9.454l2.252-5.658c-18.116-7.202-38.7-2.954-52.465,10.811
	c-9.201,9.191-14.265,21.425-14.265,34.438c0,11.13,3.739,21.684,10.652,30.335l-5.595,1.113l1.196,5.971l12.084-2.417l7.148-11.917
	l-5.219-3.131L70.776,129.998z"/>
<g>
	<path fill="#F8981D" d="M224.451,134.824c1.279-8.328,1.068-16.624-0.641-24.667c-6.92-32.587-35.664-56.005-68.549-56.005
		c-0.294,0-0.588,0-0.885,0.003l0.075,6.088c30.379-0.389,57.019,21.135,63.396,51.179c1.627,7.632,1.767,15.526,0.424,23.45
		l-0.181,1.065l17.763,31.769l-19.713,4.503v37.133h-30.438v27.395h-63.928v6.085h70.014v-27.4h30.439v-38.36l22.904-5.234
		L224.451,134.824z"/>
	<path fill="#F8981D" d="M192.166,243.195h-70.764v-6.836h63.928v-27.394h30.438V171.91l19.518-4.458l-17.583-31.447l0.202-1.196
		c1.336-7.887,1.193-15.729-0.422-23.309c-6.315-29.75-32.866-51.304-63.023-50.882l-0.375,0.005l-0.085-6.838l0.376-0.004
		c0.298-0.003,0.594-0.003,0.889-0.003c33.006,0,61.988,23.678,68.916,56.302c1.706,8.037,1.93,16.337,0.663,24.674l20.865,37.325
		l-23.103,5.278v38.438h-30.438L192.166,243.195L192.166,243.195z M122.152,242.445h69.264v-27.4h30.439V176.76l22.709-5.189
		l-20.504-36.675l0.02-0.127c1.275-8.29,1.061-16.544-0.637-24.532c-6.854-32.279-35.528-55.708-68.182-55.708
		c-0.168,0-0.336,0-0.505,0l0.065,5.337c0.146-0.001,0.294-0.002,0.438-0.002c30.146,0,56.62,21.651,62.954,51.48
		c1.635,7.673,1.778,15.61,0.428,23.59l-0.16,0.935l17.942,32.09l-19.909,4.548v37.209H186.08v27.394h-63.928V242.445z"/>
</g>
<path fill="#F8981D" d="M89.918,133.237h1.825l0.453-6.085l-1.24-1.199c-0.815-0.788-19.733-19.493-2.605-38.245
	c3.693-4.042,13.205-7.151,22.146-5.096c5.368,1.227,12.389,4.776,15.35,14.698c2.242,7.534,2.865,16.823-9.542,28.621l-1.192,1.135
	l0.177,6.171h2.027c2.11,0,4.017,0.86,5.398,2.255l-0.154-5.386c14.284-14.299,12.771-26.72,10.336-34.893
	c-3.1-10.393-10.473-17.417-20.758-19.774C101.514,73,88.944,76.144,82.916,82.745c-16.697,18.281-6.784,38.157,1.692,47.237
	l-0.439,5.934C85.563,134.29,87.612,133.237,89.918,133.237z"/>
<path fill="#F8981D" d="M91.345,138.639l0.398-5.402h-1.825c-2.306,0-4.355,1.053-5.75,2.679l-0.162,2.176L91.345,138.639z"/>
<path fill="#F8981D" d="M117.315,133.237h-2.027l0.177,6.091h1.85c0.323,0,0.604,0.12,0.851,0.291l4.662-0.133l-0.114-3.995
	C121.332,134.097,119.425,133.237,117.315,133.237z"/>
</svg>
