<?xml version="1.0" encoding="utf-8"?>
<!-- Generator: Adobe Illustrator 16.0.0, SVG Export Plug-In . SVG Version: 6.00 Build 0)  -->
<!DOCTYPE svg PUBLIC "-//W3C//DTD SVG 1.1//EN" "http://www.w3.org/Graphics/SVG/1.1/DTD/svg11.dtd">
<svg version="1.1" id="Layer_1" xmlns="http://www.w3.org/2000/svg" xmlns:xlink="http://www.w3.org/1999/xlink" x="0px" y="0px"
	 width="300px" height="300px" viewBox="0 0 300 300" enable-background="new 0 0 300 300" xml:space="preserve">
<g>
	<path fill-rule="evenodd" clip-rule="evenodd" fill="#AAAAAA" d="M266.993,216.862c-0.104-0.788-0.23-1.572-0.345-2.356
		c-1.363-9.283-2.731-18.564-4.086-27.848c-1.357-9.323-2.69-18.65-4.051-27.974c-1.352-9.284-2.727-18.563-4.084-27.846
		c-1.282-8.772-2.554-17.543-3.825-26.315c-0.476-3.271-0.934-6.544-1.408-9.88c1.778-0.428,2.779-1.429,3.138-3.125
		c1.397-6.617,2.912-13.21,4.242-19.841c0.997-4.984-2.66-7.914-6.39-7.843c-8.269,0.157-16.54,0.034-24.813,0.057
		c-4.058,0.009-6.937,3.468-6.12,7.425c1.408,6.805,2.899,13.593,4.374,20.384c0.372,1.713,1.318,2.544,3.048,2.823
		c0.263,0.042,0.52,0.135,0.825,0.216c-0.037,0.379-0.052,0.702-0.1,1.018c-0.881,5.768-1.772,11.533-2.65,17.301
		c-1.535,10.105-3.056,20.214-4.596,30.318c-1.258,8.26-2.545,16.516-3.811,24.774c-1.368,8.949-2.723,17.899-4.088,26.849
		c-1.069,7.005-2.116,14.013-3.229,21.01c-0.318,2.014,0.276,3.446,1.912,4.727c5.112,4.009,10.129,8.141,15.179,12.229
		c0.38,0.309,0.753,0.626,1.164,0.978l7.967,7.965c0,0,2.506,2.019,5.242,0l6.383-5.962c0.054-0.022,0.103-0.044,0.156-0.071
		c0.108-0.132,0.23-0.266,0.358-0.404l2.321-2.167c0.729-0.623,1.434-1.193,1.936-1.605c4.681-3.874,9.37-7.735,14.051-11.611
		C266.7,219.254,267.165,218.176,266.993,216.862z M226.061,72c7.968,0,15.748,0,23.75,0c-0.229,0-0.431,1.484-0.649,2.507
		c-0.921,4.279-1.873,8.22-2.747,12.51c-0.179,0.876-0.541,0.963-1.394,0.957c-4.762-0.033-9.523-0.08-14.285-0.136
		c-0.399-0.005-1.067,0.17-1.147-0.178C228.379,82.303,227.249,76,226.061,72z M219.74,190.909
		c1.273-8.349,2.54-16.698,3.815-25.047c1.436-9.409,2.875-18.819,4.315-28.228c1.453-9.5,2.91-18.998,4.361-28.498
		c0.681-4.474,1.36-8.948,2.015-13.425c0.122-0.822,0.436-1.216,1.347-1.186c1.863,0.063,3.728,0.043,5.592,0.014
		c0.773-0.013,1.151,0.185,1.275,1.056c1.366,9.608,2.779,19.207,4.181,28.811c1.354,9.279,2.705,18.56,4.062,27.84
		c0.506,3.462,0.974,6.931,1.552,10.381c0.201,1.211-0.091,2.088-0.878,3.018c-4.679,5.531-9.3,11.11-13.937,16.675
		c-6.251,7.496-12.497,14.997-18.748,22.492c-0.288,0.347-0.604,0.673-0.905,1.008c-0.102-0.043-0.202-0.086-0.302-0.13
		C218.237,200.762,218.988,195.835,219.74,190.909z M259.336,216.471c-6.918,5.782-13.875,11.522-20.828,17.271
		c-0.067,0.055-0.164,0.071-0.392,0.162c-6.867-5.558-13.794-11.159-20.777-16.812c12.124-14.546,24.14-28.966,36.421-43.704
		c0.37,2.445,0.692,4.526,0.995,6.607c1.37,9.367,2.733,18.737,4.096,28.103c0.336,2.31,0.694,4.617,0.957,6.933
		C259.86,215.497,259.671,216.188,259.336,216.471z"/>
	<g>
		<path fill-rule="evenodd" clip-rule="evenodd" fill="#AAAAAA" d="M188.891,133.086c-0.052,22.399-18.205,40.47-40.661,40.475
			c-22.329,0.007-40.634-18.201-40.746-40.532c-0.113-22.389,18.712-41.114,41.106-40.89
			C170.957,92.362,188.943,110.639,188.891,133.086z M182.958,133.036c0.047-19.305-15.381-34.902-34.577-34.961
			c-19.09-0.059-34.923,15.652-34.986,34.715c-0.064,19.188,15.484,34.782,34.731,34.834
			C167.501,167.673,182.911,152.372,182.958,133.036z"/>
		<path fill="#AAAAAA" d="M148.229,174.001h-0.014c-22.588,0-41.059-18.379-41.174-40.97c-0.055-10.866,4.239-21.195,12.089-29.085
			c7.86-7.899,18.182-12.25,29.062-12.25l0.402,0.002c22.516,0.225,40.789,18.792,40.736,41.388
			C189.279,155.642,170.841,173.996,148.229,174.001z M148.192,92.578c-10.645,0-20.743,4.258-28.437,11.991
			c-7.684,7.722-11.885,17.829-11.832,28.458c0.111,22.108,18.187,40.093,40.292,40.093v0.44l0.014-0.44
			c22.126-0.006,40.169-17.965,40.22-40.035c0.052-22.114-17.83-40.285-39.863-40.505L148.192,92.578z M148.22,168.064
			L148.22,168.064h-0.095c-9.427-0.024-18.275-3.708-24.919-10.371c-6.644-6.662-10.284-15.507-10.252-24.904
			c0.064-19.384,15.908-35.155,35.32-35.155h0.108c19.354,0.06,35.063,15.94,35.016,35.402
			C183.351,152.678,167.897,168.064,148.22,168.064z M148.274,98.516c-18.927,0-34.376,15.376-34.439,34.276
			c-0.031,9.162,3.519,17.785,9.995,24.28c6.477,6.496,15.105,10.087,24.297,10.111h0.092c19.187,0.001,34.253-15,34.298-34.148
			c0.047-18.976-15.269-34.46-34.138-34.519H148.274z"/>
	</g>
	<path fill="#AAAAAA" d="M166.375,130.175c-7.902-5.532-15.641-10.932-23.436-16.183c-1.041-0.701-1.942-1.056-2.68-1.056
		c-1.686,0-2.082,1.969-2.119,3.622c-0.086,3.75-0.068,7.567-0.051,11.259c0.009,1.702,0.016,3.403,0.015,5.105
		c-0.001,1.573-0.012,3.146-0.022,4.72c-0.024,3.62-0.05,7.363,0.053,11.037c0.104,3.765,1.22,4.201,2.051,4.201
		c0.809,0,1.918-0.465,3.297-1.383c4.669-3.104,9.348-6.367,13.873-9.521c2.855-1.992,5.711-3.983,8.583-5.949
		c1.613-1.104,2.435-2.154,2.438-3.119C168.381,132.027,167.707,131.108,166.375,130.175z M144,145.373v-24.86l17.938,12.399
		L144,145.373z"/>
	<path fill="#AAAAAA" d="M144.119,121.353l16.725,11.56C154.952,128.84,149.85,125.313,144.119,121.353z"/>
	<path fill="#AAAAAA" d="M166.881,129.453c-7.906-5.534-15.648-10.937-23.449-16.191c-1.189-0.801-2.258-1.207-3.172-1.207
		c-1.084,0-2.914,0.583-3.001,4.484c-0.086,3.762-0.067,7.585-0.051,11.283c0.009,1.7,0.017,3.4,0.015,5.1
		c0,1.571-0.011,3.143-0.021,4.714c-0.025,3.627-0.051,7.378,0.051,11.068c0.036,1.25,0.143,5.057,2.934,5.057
		c0.998,0,2.237-0.5,3.786-1.53c4.676-3.11,9.358-6.375,13.888-9.533c2.854-1.989,5.707-3.979,8.576-5.944
		c1.895-1.296,2.816-2.553,2.824-3.842C169.265,131.708,168.486,130.578,166.881,129.453z M166.188,136.389
		c-7.502,5.137-14.891,10.441-22.461,15.475c-4.049,2.692-5.898,1.661-6.032-3.172c-0.146-5.253-0.033-10.513-0.031-15.77
		c0.005-5.458-0.088-10.918,0.036-16.374c0.09-3.99,2.137-5.177,5.486-2.922c7.875,5.305,15.662,10.741,23.441,16.188
		C169.981,132.161,169.205,134.323,166.188,136.389z"/>
	<path fill="#AAAAAA" d="M166.627,129.814c-7.779-5.446-15.566-10.883-23.441-16.188c-3.35-2.255-5.396-1.068-5.486,2.922
		c-0.124,5.456-0.031,10.916-0.036,16.374c-0.002,5.256-0.115,10.517,0.031,15.77c0.134,4.833,1.983,5.864,6.032,3.172
		c7.57-5.033,14.959-10.337,22.461-15.475C169.205,134.323,169.981,132.161,166.627,129.814z M165.938,136.025
		c-2.872,1.966-5.728,3.958-8.583,5.949c-4.525,3.155-9.204,6.417-13.873,9.521c-1.379,0.918-2.488,1.383-3.297,1.383
		c-0.831,0-1.946-0.436-2.051-4.201c-0.103-3.674-0.077-7.417-0.053-11.037c0.011-1.573,0.021-3.146,0.022-4.72
		c0.001-1.702-0.006-3.403-0.015-5.105c-0.018-3.692-0.035-7.509,0.051-11.259c0.037-1.653,0.434-3.622,2.119-3.622
		c0.737,0,1.639,0.355,2.68,1.056c7.795,5.251,15.533,10.651,23.436,16.183c1.332,0.933,2.006,1.853,2.002,2.732
		C168.373,133.871,167.552,134.921,165.938,136.025z"/>
	<path fill="#AAAAAA" d="M144,145.373l17.938-12.461L144,120.513V145.373z M145,121.353c4,3.96,10.833,7.487,16.724,11.56
		C156.097,136.821,149,140.425,145,144.53C145,136.691,145,129.592,145,121.353z"/>
	<path fill="#AAAAAA" d="M145,121.353c0,8.239,0,15.338,0,23.177c4-4.104,11.097-7.708,16.724-11.617L145,121.353z M145,122.194
		l15.509,10.719L145,143.687V122.194z"/>
	<g>
		<path fill="#AAAAAA" d="M58.366,191c-3.083,0-4.995-0.736-6.192-1.94c-1.225-1.229-1.737-3.241-1.714-6.497
			c0.26-34.984,0.257-67.494-0.009-99.287c-0.025-3.069,0.493-4.994,1.684-6.185c1.224-1.226,3.082-1.716,6.477-1.702
			c23.923,0.173,48.257,0.143,71.789,0.121c8.143-0.008,16.284-0.018,24.425-0.018c8.18,0,15.566,0.006,22.663,0.014
			c14.892,0.016,20.144,0.031,37.544-0.037l0.003,0.881c-17.404,0.067-22.656,0.051-37.548,0.036
			c-7.097-0.007-14.482-0.016-22.662-0.016c-8.14,0-16.281,0.008-24.424,0.016c-23.532,0.022-47.869,0.044-71.796-0.128
			c-3.112-0.009-4.809,0.393-5.846,1.431c-1.011,1.011-1.451,2.716-1.428,5.53c0.267,31.797,0.27,64.262,0.011,99.251
			c-0.022,2.997,0.414,4.862,1.456,5.909c1.019,1.023,2.737,1.621,5.565,1.621c0.026,0,0.052,0,0.078,0
			c54.631-1,90.558-0.275,152.558-0.158v0.965C149,190.69,113.074,190,58.444,191C58.418,191,58.393,191,58.366,191z"/>
	</g>
	<g>
		<path fill="#AAAAAA" d="M58.129,190.161c-5.94,0.017-7.413-1.903-7.372-7.694c0.247-33.081,0.333-66.165,0.056-99.245
			c-0.049-6.072,2.074-7.446,7.744-7.405c32.064,0.232,63.668,0.112,95.735,0.112c25.624,0,34.708,0.08,59.708-0.021v-5.917
			c-58-0.006-99.085-0.008-157.22,0c-9.453,0.002-11.937,2.781-11.938,12.395c-0.011,33.691,0.107,67.383,0.118,101.075
			c0.003,9.609,2.714,12.305,12.284,12.313c32.473,0.023,64.698,0.009,97.171,0.009c25.647,0,30.585,0.006,55.585-0.003v-5.668
			C152,190,115.88,189.998,58.129,190.161z"/>
		<path fill="#AAAAAA" d="M100.325,196.227c-14.335,0-28.672-0.002-43.044-0.013c-9.839-0.008-12.685-2.868-12.688-12.753
			c-0.004-12.959-0.013-25.917-0.022-38.875c-0.014-20.733-0.027-41.466-0.021-62.2c0.001-9.954,2.812-13.109,12.528-13.11
			C115.212,69.269,156.417,69,214.593,69H215v7.348l-0.422,0.002c-17.395,0.068-22.291,0.052-37.359,0.036
			c-7.074-0.008-14.441-0.016-22.629-0.016c-8.147,0-16.28,0.008-24.41,0.016c-8.118,0.008-16.229-0.113-24.344-0.113
			C86.832,76.272,72.254,76,58.564,76h-0.235c-2.944,0-4.627,0.561-5.632,1.572c-1.005,1.014-1.443,2.78-1.42,5.583
			c0.251,30,0.24,62.498-0.032,99.283c-0.022,3.038,0.404,4.791,1.425,5.819c0.994,1.002,2.681,1.454,5.473,1.454
			c31.238-0.087,58.91,0.041,87.161,0.041c22.29,0,36.893-0.752,64.883,0.248H211v6h-0.813c-10.646,0-10.341,0-18.503,0
			l-37.157,0.11L100.325,196.227z M135.434,70.427c-25.479,0-51.017,0.001-78.396,0.006c-9.142,0.001-11.626,2.571-11.627,11.953
			c-0.007,20.733,0.019,41.466,0.032,62.2c0.01,12.958,0.022,25.916,0.026,38.875c0.005,9.422,2.434,11.864,11.809,11.872
			c14.372,0.01,28.712,0.341,43.045,0.341L154.526,196h37.157c8.049,0,7.316-0.657,18.316-0.662v-4.786
			c-28-0.054-42.397-0.078-64.569-0.078c-28.249,0-55.983,0.041-87.144,0.128c-3.126,0-5.037-0.525-6.211-1.707
			c-1.201-1.211-1.722-3.134-1.696-6.432c0.272-36.78,0.274-69.242,0.024-99.237c-0.025-3.056,0.487-4.639,1.671-5.833
			C53.261,76.198,55.128,76,58.329,76h0.243c13.686,0,28.262-0.168,47.265-0.168c8.113,0,16.227-0.164,24.346-0.172
			c8.128-0.008,16.264-0.093,24.411-0.093c8.188,0,15.484-0.032,22.56-0.024C192.092,75.559,197,75.536,214,75.471v-5.038
			C184,70.429,163.919,70.427,135.434,70.427z"/>
	</g>
</g>
</svg>
