<?xml version="1.0" encoding="utf-8"?>
<!-- Generator: Adobe Illustrator 16.0.0, SVG Export Plug-In . SVG Version: 6.00 Build 0)  -->
<!DOCTYPE svg PUBLIC "-//W3C//DTD SVG 1.1//EN" "http://www.w3.org/Graphics/SVG/1.1/DTD/svg11.dtd">
<svg version="1.1" id="Layer_1" xmlns="http://www.w3.org/2000/svg" xmlns:xlink="http://www.w3.org/1999/xlink" x="0px" y="0px"
	 width="300px" height="300px" viewBox="0 0 300 300" enable-background="new 0 0 300 300" xml:space="preserve">
<g>
	<path fill="#AAAAAA" d="M258.158,184.605c-1.439-5.238-5.828-9.143-11.201-9.946V95.894h6.864c1.895,0,3.431-1.546,3.431-3.435
		V58.137c0-1.89-1.536-3.426-3.431-3.426H102.818c-1.895,0-3.43,1.536-3.43,3.426v34.322c0,1.889,1.535,3.435,3.43,3.435h6.866
		v68.639h-3.436c-8.519-0.024-16.86,2.412-24.021,7.021v-17.321c0-1.894-1.535-3.43-3.431-3.43H54.775
		c-1.898,0-3.435,1.536-3.435,3.43v78.93c0,1.899,1.536,3.435,3.435,3.435h24.021c1.896,0,3.431-1.535,3.431-3.435V215.84
		c7.161,4.604,15.503,7.045,24.021,7.026h56.356c3.904-0.005,7.786-0.515,11.555-1.521l74.307-19.904
		C255.774,199.445,260.106,191.926,258.158,184.605z M106.249,61.571h144.138v27.452H106.249V61.571z M116.544,95.894h123.548
		v79.356l-39.827,10.683c-1.646-3.919-4.99-6.859-9.083-7.97l-46.236-12.408c-2.602-0.684-5.285-1.027-7.979-1.022h-20.423V95.894z
		 M75.367,229.736H58.201v-72.073h17.166V229.736z M246.681,194.809l-74.285,19.903c-3.191,0.853-6.485,1.288-9.79,1.294h-56.356
		c-8.169,0.019-16.125-2.631-22.646-7.549l-1.375-1.037v-27.452l1.375-1.032c6.521-4.912,14.478-7.563,22.646-7.543h30.718
		c2.097,0,4.186,0.267,6.216,0.799l46.225,12.394c2.734,0.757,4.733,3.092,5.045,5.916c0.033,0.136,0.082,0.276,0.135,0.418
		c-0.043,0.14-0.067,0.289-0.092,0.444c0.01,0.563-0.078,1.115-0.223,1.648c-0.81,2.993-3.518,5.077-6.618,5.082
		c-0.602,0-1.202-0.072-1.793-0.232l-29.166-7.82c-1.193-0.358-2.491-0.029-3.382,0.843c-0.887,0.877-1.241,2.16-0.901,3.363
		c0.334,1.206,1.293,2.126,2.504,2.422l29.173,7.83c1.162,0.305,2.367,0.455,3.569,0.455c6.168,0,11.585-4.134,13.212-10.082
		c0.189-0.688,0.321-1.396,0.389-2.104l41.843-11.219c0.289-0.075,0.614-0.147,0.92-0.2c3.414-0.445,6.627,1.71,7.51,5.044
		c0.153,0.586,0.231,1.172,0.231,1.772C251.763,191.276,249.689,194,246.681,194.809z"/>
	<path fill="#AAAAAA" d="M161.162,109.614h34.317c1.893,0,3.429-1.536,3.429-3.425c0-1.899-1.536-3.435-3.429-3.435h-34.317
		c-1.895,0-3.436,1.536-3.436,3.435C157.727,108.078,159.268,109.614,161.162,109.614z"/>
</g>
</svg>
