<?xml version="1.0" encoding="utf-8"?>
<!-- Generator: Adobe Illustrator 16.0.0, SVG Export Plug-In . SVG Version: 6.00 Build 0)  -->
<!DOCTYPE svg PUBLIC "-//W3C//DTD SVG 1.1//EN" "http://www.w3.org/Graphics/SVG/1.1/DTD/svg11.dtd">
<svg version="1.1" id="Layer_1" xmlns="http://www.w3.org/2000/svg" xmlns:xlink="http://www.w3.org/1999/xlink" x="0px" y="0px"
	 width="300px" height="300px" viewBox="0 0 300 300" enable-background="new 0 0 300 300" xml:space="preserve">
<g>
	<path fill-rule="evenodd" clip-rule="evenodd" fill="#FFFFFF" d="M121.972,185.243c2.378-7.861,4.509-15.628,7.095-23.241
		c2.628-7.752,5.993-15.209,11.703-21.302c3.378-3.6,7.303-6.087,12.567-5.337c4.101,0.584,6.935,3.076,9.294,6.221
		c5.451,7.287,8.326,15.743,10.307,24.447c2.027,8.91,3.444,17.961,5.135,26.948c0.036,0.217,0.166,0.418,0.419,1.023
		c0.579-1.106,1.034-1.924,1.443-2.762c3.836-7.813,8.408-15.115,16.248-19.449c3.28-1.811,7.069-2.809,10.736-3.75
		c2.234-0.579,3.952,0.973,4.345,3.098c0.372,2.073-0.776,3.988-3.093,4.37c-9.186,1.5-14.76,7.521-19.114,15.07
		c-4.411,7.658-6.935,15.99-8.569,24.632c-0.496,2.643-1.93,4.008-4.038,3.987c-2.168-0.025-3.637-1.598-3.91-4.055
		c-0.972-8.854-1.763-17.743-3.021-26.562c-1.686-11.785-4.022-23.468-8.596-34.54c-1.256-3.036-2.999-5.953-4.97-8.59
		c-2.385-3.186-5.48-3.444-8.413-0.714c-2.038,1.903-3.833,4.204-5.225,6.624c-5.471,9.553-8.646,20.015-11.035,30.657
		c-2.441,10.871-4.293,21.871-6.309,32.83c-0.523,2.85-1.873,4.447-4.189,4.349c-2.312-0.093-3.651-1.8-3.786-4.685
		c-0.961-20.243-4.313-40.05-11.057-59.194c-4.648-13.219-10.902-25.589-20.391-36.088c-8.963-9.918-19.751-16.781-32.965-19.533
		c-0.568-0.118-1.143-0.236-1.695-0.402c-2.183-0.646-3.356-2.488-2.942-4.566c0.403-2.018,2.316-3.559,4.488-2.928
		c5.895,1.713,11.968,3.154,17.47,5.751c16.275,7.675,27.259,20.784,35.513,36.388c8.125,15.375,12.888,31.877,16.017,48.907
		C121.579,183.635,121.785,184.416,121.972,185.243z"/>
	<path fill-rule="evenodd" clip-rule="evenodd" fill="#FFFFFF" d="M241.621,146.777c13.426,0.242,23.721,10.911,23.521,24.373
		c-0.192,12.624-11.213,23.329-23.83,23.162c-13.355-0.175-23.92-11.148-23.691-24.595
		C217.842,157.109,228.888,146.549,241.621,146.777z M225.521,170.354c-0.051,8.958,6.936,16.053,15.872,16.12
		c8.688,0.073,15.913-7.121,15.927-15.846c0.012-8.952-7.069-16.14-15.906-16.14C232.647,154.482,225.568,161.547,225.521,170.354z"
		/>
</g>
</svg>
