<?xml version="1.0" encoding="utf-8"?>
<!-- Generator: Adobe Illustrator 16.0.0, SVG Export Plug-In . SVG Version: 6.00 Build 0)  -->
<!DOCTYPE svg PUBLIC "-//W3C//DTD SVG 1.1//EN" "http://www.w3.org/Graphics/SVG/1.1/DTD/svg11.dtd">
<svg version="1.1" id="Layer_1" xmlns="http://www.w3.org/2000/svg" xmlns:xlink="http://www.w3.org/1999/xlink" x="0px" y="0px"
	 width="300px" height="300px" viewBox="0 0 300 300" enable-background="new 0 0 300 300" xml:space="preserve">
<g>
	<g>
		<path fill="#FFFFFF" d="M233.183,170.005c-0.792-0.792-1.88-1.237-2.994-1.237c-1.111,0-2.213,0.445-2.991,1.237
			c-0.796,0.797-1.25,1.885-1.25,2.999c0,1.125,0.454,2.208,1.25,2.984c0.778,0.802,1.88,1.253,2.991,1.253
			c1.114,0,2.202-0.451,2.994-1.253c0.786-0.776,1.242-1.859,1.242-2.984C234.425,171.89,233.969,170.797,233.183,170.005z"/>
	</g>
</g>
<path fill-rule="evenodd" clip-rule="evenodd" fill="#FFFFFF" d="M233.899,162.061c-15.689,0.006-31.38,0.006-47.07,0
	c-7.709-0.004-12.198-4.441-12.208-12.132c-0.02-16.909-0.02-38.817,0.006-55.73c0.009-6.8,4.681-11.515,11.513-11.519
	c31.803-0.028,63.601-0.028,95.406,0c6.726,0.004,11.401,4.63,11.406,11.316c0.005,9.135-0.201,23.277-0.201,32.411
	c0,7.61,0.046,15.227,0.294,22.833c0.278,8.505-5.486,13.079-12.867,12.92C264.759,161.832,249.327,162.061,233.899,162.061z
	 M233.764,155.289c15.592,0,31.188,0.006,46.774-0.004c4.162,0,5.492-1.354,5.531-5.413c0.088-8.848,0.271-17.694,0.275-26.544
	c0.009-7.652-0.169-20.305-0.249-27.953c-0.047-4.584-1.32-5.877-5.918-5.877c-30.738,0-61.476,0.005-92.214,0.01
	c-5.395,0-6.494,1.157-6.494,6.654c0,16.031-0.011,37.06-0.044,53.087c-0.01,4.588,1.41,6.04,6.079,6.04
	C202.927,155.289,218.345,155.289,233.764,155.289z"/>
<path fill-rule="evenodd" clip-rule="evenodd" fill="#FFFFFF" d="M266.372,118.595c0,2.381,0,4.442,0,6.649
	c-21.699,0-43.247,0-64.991,0c0-2.216,0-4.33,0-6.649C223.003,118.595,244.622,118.595,266.372,118.595z"/>
<path fill-rule="evenodd" clip-rule="evenodd" fill="#FFFFFF" d="M201.291,109.367c0-2.217,0-4.283,0-6.58
	c21.572,0,43.101,0,64.944,0c0,2.053,0,4.232,0,6.58C244.688,109.367,223.13,109.367,201.291,109.367z"/>
<path fill-rule="evenodd" clip-rule="evenodd" fill="#FFFFFF" d="M266.372,134.528c0,2.175,0,4.223,0,6.453
	c-21.675,0-43.242,0-64.991,0c0-2.114,0-4.161,0-6.453C222.975,134.528,244.604,134.528,266.372,134.528z"/>
<path fill="#FFFFFF" d="M230.188,184.725c-2.334,0-4.241,1.895-4.241,4.237v18.632h-72.86v-0.351h-8.468v0.351H71.76v-0.351h-8.478
	v0.351H48.881V95.816c0-1.805,1.48-3.281,3.309-3.281h107.242c2.336,0,4.242-1.898,4.242-4.236c0-2.344-1.906-4.236-4.242-4.236
	H52.189c-6.494,0-11.781,5.271-11.781,11.754v118.531h194.017v-25.386C234.425,186.619,232.521,184.725,230.188,184.725z"/>
<path fill-rule="evenodd" clip-rule="evenodd" fill="#FFFFFF" d="M116.407,199.741c-0.005-6.887,0.031-13.773-0.062-20.659
	c-0.022-1.617,0.525-2.487,1.918-3.267c5.703-3.177,11.354-6.456,17.001-9.737c3.998-2.325,5.779-5.816,5.582-10.455
	c-0.033-0.807,0.581-1.927,1.25-2.438c5.804-4.461,11.694-8.806,17.538-13.211c3.294-2.484,3.444-3.73,0.932-7.104
	c-0.359-0.493-0.717-0.99-1.097-1.463c-1.724-2.16-3.393-2.456-5.618-0.811c-6.654,4.92-13.258,9.916-19.918,14.827
	c-0.712,0.525-1.662,0.769-2.534,1.026c-2.46,0.717-5.128,1.003-7.372,2.128c-4.505,2.268-8.865,4.86-13.121,7.568
	c-1.922,1.224-3.361,1.345-5.049-0.179c-0.688-0.623-1.625-0.975-2.68-1.578c3.697-5.943,4.836-12.265,2.536-18.943
	c-1.524-4.414-4.289-7.947-8.198-10.535c-8.027-5.314-18.374-4.423-25.573,2.016c-7.694,6.885-8.716,16.764-2.863,27.94
	c-1.378,0.989-2.85,1.894-4.151,2.999c-5.464,4.636-7.973,10.623-7.968,17.733c0.005,9.242-0.014,18.479-0.022,27.716
	c0,0.853,0,1.729,0,2.726h6.931c0.027-10.169-0.009-20.333,0.023-30.497c0.004-1.551,0.056-3.169,0.474-4.64
	c1.701-5.971,5.77-9.476,11.683-11.187c1.176-0.339,2.493-1.636,2.878-2.789c0.295-0.881-0.451-2.586-1.275-3.294
	c-4.924-4.246-6.954-9.425-4.859-15.64c2.058-6.11,6.49-9.24,13.112-9.597c5.62-0.305,11.144,3.599,12.911,8.365
	c2.441,6.585,1.098,11.575-4.02,16.538c-0.916,0.885-1.736,2.666-1.463,3.744c0.271,1.073,1.86,2.264,3.079,2.559
	c3.294,0.811,6.29,1.997,8.716,4.425c1.434,1.43,3.042,1.536,4.762,0.543c0.604-0.352,1.209-0.698,1.809-1.046
	c5.587-3.213,11.103-6.551,16.806-9.541c1.158-0.604,3.43-0.431,4.433,0.348c1.374,1.072,1.523,3.126,0.16,4.7
	c-0.553,0.633-1.347,1.092-2.091,1.523c-6.246,3.631-12.483,7.272-18.772,10.835c-1.764,0.998-2.658,2.244-2.645,4.361
	c0.062,10.096,0.019,20.194,0.028,30.288h6.796C116.412,203.821,116.412,201.775,116.407,199.741z"/>
</svg>
