<?xml version="1.0" encoding="utf-8"?>
<!-- Generator: Adobe Illustrator 16.0.0, SVG Export Plug-In . SVG Version: 6.00 Build 0)  -->
<!DOCTYPE svg PUBLIC "-//W3C//DTD SVG 1.1//EN" "http://www.w3.org/Graphics/SVG/1.1/DTD/svg11.dtd">
<svg version="1.1" id="Layer_1" xmlns="http://www.w3.org/2000/svg" xmlns:xlink="http://www.w3.org/1999/xlink" x="0px" y="0px"
	 width="300px" height="300px" viewBox="0 0 300 300" enable-background="new 0 0 300 300" xml:space="preserve">
<g id="XMLID_176_">
	<path id="XMLID_178_" fill="#FFFFFF" d="M178.018,128.727c-6.737,0-13.282,1.308-19.452,3.89c-2.04,0.854-3.009,3.197-2.153,5.238
		c0.852,2.044,3.202,3.005,5.246,2.153c5.185-2.164,10.687-3.26,16.359-3.26c23.427,0,42.488,19.059,42.488,42.488
		c0,23.419-19.062,42.487-42.488,42.487c-23.424,0-42.482-19.068-42.482-42.487c0-5.671,1.094-11.173,3.255-16.344
		c0.848-2.047-0.112-4.386-2.152-5.248c-2.046-0.85-4.395,0.119-5.247,2.16c-2.57,6.163-3.875,12.703-3.875,19.432
		c0,27.845,22.657,50.491,50.502,50.491c27.847,0,50.503-22.646,50.503-50.491C228.521,151.387,205.864,128.727,178.018,128.727
		L178.018,128.727z"/>
	<path id="XMLID_711_" fill="#FFFFFF" d="M178.018,212.099c18.124,0,32.87-14.747,32.87-32.862c0-18.127-14.746-32.87-32.87-32.87
		c-18.121,0-32.861,14.743-32.861,32.87C145.156,197.352,159.899,212.099,178.018,212.099z M178.018,154.374
		c13.704,0,24.853,11.151,24.853,24.862c0,13.692-11.148,24.846-24.853,24.846c-13.698,0-24.85-11.153-24.85-24.846
		C153.168,165.525,164.319,154.374,178.018,154.374z"/>
	<path id="XMLID_714_" fill="#FFFFFF" d="M235.446,109.49h-12.191l-13.994-23.684c-0.725-1.219-2.033-1.965-3.454-1.965h-55.575
		c-1.418,0-2.729,0.746-3.451,1.965l-13.997,23.684h-22.901v-4.811c0-7.953-6.474-14.428-14.427-14.428
		c-7.962,0-14.432,6.475-14.432,14.428v4.811H70.89c-11.209,0-20.33,9.118-20.33,20.33v98.823c0,11.209,9.121,20.323,20.33,20.323
		h164.557c11.209,0,20.329-9.114,20.329-20.323V129.82C255.775,118.608,246.655,109.49,235.446,109.49L235.446,109.49z
		 M152.522,91.857h51l10.418,17.633h-71.844L152.522,91.857z M89.038,104.68c0-3.538,2.878-6.413,6.417-6.413
		c3.53,0,6.409,2.875,6.409,6.413v4.811H89.038V104.68z M247.756,228.644c0,6.787-5.523,12.312-12.31,12.312H70.89
		c-6.787,0-12.312-5.524-12.312-12.312V129.82c0-6.794,5.524-12.314,12.312-12.314h164.557c6.786,0,12.31,5.521,12.31,12.314
		V228.644L247.756,228.644z"/>
	<path id="XMLID_717_" fill="#FFFFFF" d="M178.018,171.417c4.311,0,7.82,3.502,7.82,7.819c0,2.207,1.792,4.006,4.001,4.006
		c2.221,0,4.011-1.799,4.011-4.006c0-8.736-7.099-15.84-15.832-15.84c-2.215,0-4.004,1.792-4.004,4.01
		C174.014,169.622,175.803,171.417,178.018,171.417z"/>
	<path id="XMLID_718_" fill="#FFFFFF" d="M178.018,73.301c2.216,0,4.011-1.795,4.011-4.014V47.895c0-2.215-1.795-4.006-4.011-4.006
		c-2.215,0-4.004,1.791-4.004,4.006v21.393C174.014,71.506,175.803,73.301,178.018,73.301z"/>
	<path id="XMLID_719_" fill="#FFFFFF" d="M197.091,73.301c1.029,0,2.055-0.398,2.836-1.176l14.707-14.711
		c1.562-1.563,1.562-4.101,0-5.666c-1.57-1.566-4.107-1.566-5.675,0l-14.703,14.707c-1.563,1.566-1.563,4.102,0,5.67
		C195.038,72.902,196.069,73.301,197.091,73.301L197.091,73.301z"/>
	<path id="XMLID_720_" fill="#FFFFFF" d="M156.112,72.125c0.785,0.777,1.813,1.176,2.834,1.176c1.029,0,2.053-0.398,2.835-1.176
		c1.566-1.568,1.566-4.104,0-5.67l-14.704-14.707c-1.565-1.566-4.103-1.566-5.669,0c-1.566,1.565-1.566,4.104,0,5.666
		L156.112,72.125z"/>
	<path id="XMLID_730_" fill="#FFFFFF" d="M105.872,142.36H85.031c-2.214,0-4.008,1.79-4.008,4.006c0,2.214,1.794,4.005,4.008,4.005
		h20.841c2.213,0,4.01-1.791,4.01-4.005C109.882,144.15,108.085,142.36,105.872,142.36z"/>
	<path id="XMLID_731_" fill="#FFFFFF" d="M145.138,150.371c1.051,0,2.084-0.427,2.832-1.174c0.746-0.739,1.174-1.776,1.174-2.831
		c0-1.056-0.428-2.091-1.174-2.827c-0.748-0.758-1.781-1.186-2.832-1.186c-1.059,0-2.091,0.428-2.834,1.186
		c-0.752,0.736-1.18,1.775-1.18,2.827s0.428,2.092,1.18,2.831C143.047,149.944,144.076,150.371,145.138,150.371z"/>
</g>
</svg>
