<?xml version="1.0" encoding="utf-8"?>
<!-- Generator: Adobe Illustrator 16.0.0, SVG Export Plug-In . SVG Version: 6.00 Build 0)  -->
<!DOCTYPE svg PUBLIC "-//W3C//DTD SVG 1.1//EN" "http://www.w3.org/Graphics/SVG/1.1/DTD/svg11.dtd">
<svg version="1.1" id="Layer_1" xmlns="http://www.w3.org/2000/svg" xmlns:xlink="http://www.w3.org/1999/xlink" x="0px" y="0px"
	 width="300px" height="300px" viewBox="0 0 300 300" enable-background="new 0 0 300 300" xml:space="preserve">
<path fill="#FFFFFF" d="M121.36,152.268c2.132-1.345,3.564-3.711,3.564-6.421c0-2.085-0.845-3.979-2.211-5.354l0.114,3.994
	l-4.662,0.133c0.396,0.278,0.67,0.709,0.67,1.228c0,0.838-0.684,1.521-1.521,1.521h-3.046H92.964h-3.046
	c-0.835,0-1.521-0.683-1.521-1.521c0-0.841,0.683-1.519,1.521-1.519h25.546l-0.177-6.092h-8.625v-18.828
	c3.533-1.252,6.088-4.608,6.088-8.565c0-5.038-4.1-9.138-9.134-9.138c-5.038,0-9.131,4.1-9.131,9.138
	c0,3.957,2.552,7.313,6.088,8.565v18.828h-8.831l-0.398,5.402l-7.338-0.547l0.162-2.176c-1.145,1.334-1.86,3.042-1.86,4.931
	c0,2.71,1.43,5.073,3.564,6.421c-0.323,0.847-0.519,1.755-0.519,2.71c0,2.457,1.186,4.621,2.993,6.01v63.292l15.222,26.638
	l15.217-26.638v-63.213c1.869-1.386,3.097-3.587,3.097-6.089C121.882,154.02,121.683,153.114,121.36,152.268z M103.617,107.797
	c1.679,0,3.046,1.363,3.046,3.046c0,1.677-1.367,3.046-3.046,3.046s-3.042-1.369-3.042-3.046
	C100.574,109.16,101.938,107.797,103.617,107.797z M103.569,238.639l-6.933-12.127h13.863L103.569,238.639z M100.523,220.42h-6.085
	v-57.829h6.085H112.7v57.829h-6.088 M114.269,153.456c0.842,0,1.522,0.687,1.522,1.521c0,0.839-0.68,1.521-1.522,1.521H92.964
	c-0.838,0-1.525-0.683-1.525-1.521c0-0.835,0.687-1.521,1.525-1.521"/>
<path fill="#FFFFFF" d="M136.355,80.584c6.358,7.635,9.831,17.143,9.831,27.207c0,11.38-4.435,22.076-12.484,30.126l4.305,4.308
	c9.201-9.193,14.267-21.428,14.267-34.434c0-11.117-3.729-21.641-10.667-30.338l5.61-1.127l-1.198-5.968l-12.082,2.426
	l-7.151,11.911l5.221,3.132L136.355,80.584z"/>
<path fill="#FFFFFF" d="M70.776,134.998c-6.354-7.635-9.824-17.148-9.824-27.207c0-11.39,4.431-22.09,12.481-30.136
	c12.044-12.048,30.072-15.757,45.909-9.454l2.252-5.658c-18.116-7.201-38.7-2.954-52.465,10.811
	c-9.201,9.191-14.265,21.426-14.265,34.438c0,11.13,3.739,21.684,10.652,30.335l-5.595,1.113l1.196,5.972l12.084-2.417l7.148-11.917
	l-5.219-3.131L70.776,134.998z"/>
<g>
	<path fill="#FFFFFF" d="M224.451,139.824c1.28-8.328,1.068-16.624-0.64-24.667c-6.92-32.587-35.664-56.005-68.549-56.005
		c-0.294,0-0.588,0-0.885,0.004l0.075,6.088c30.379-0.389,57.018,21.135,63.396,51.178c1.626,7.633,1.766,15.527,0.424,23.45
		l-0.181,1.065l17.763,31.769l-19.714,4.503v37.133h-30.437v27.394h-63.928v6.085h70.014v-27.4h30.439v-38.361l22.905-5.234
		L224.451,139.824z"/>
	<path fill="#FFFFFF" d="M192.166,248.195h-70.764v-6.835h63.928v-27.394h30.437V176.91l19.518-4.458l-17.583-31.446l0.202-1.196
		c1.336-7.887,1.194-15.729-0.421-23.31c-6.316-29.75-32.867-51.303-63.024-50.881l-0.375,0.004l-0.085-6.838l0.376-0.004
		c0.298-0.004,0.594-0.004,0.889-0.004c33.005,0,61.988,23.678,68.916,56.302c1.706,8.036,1.93,16.337,0.663,24.675l20.865,37.324
		l-23.102,5.279v38.438h-30.439V248.195z M122.152,247.445h69.264v-27.4h30.439V181.76l22.709-5.189l-20.504-36.676l0.02-0.127
		c1.275-8.291,1.061-16.545-0.636-24.532c-6.854-32.279-35.529-55.708-68.182-55.708c-0.168,0-0.336,0-0.505,0l0.065,5.338
		c0.147-0.002,0.294-0.002,0.439-0.002c30.145,0,56.62,21.65,62.954,51.48c1.635,7.674,1.778,15.61,0.427,23.591l-0.159,0.935
		l17.942,32.091l-19.91,4.548v37.209H186.08v27.394h-63.928V247.445z"/>
</g>
<path fill="#FFFFFF" d="M89.918,138.236h1.825l0.453-6.085l-1.24-1.198c-0.815-0.788-19.733-19.494-2.605-38.246
	c3.693-4.042,13.205-7.15,22.146-5.096c5.368,1.228,12.389,4.776,15.35,14.698c2.242,7.534,2.865,16.823-9.542,28.621l-1.192,1.136
	l0.177,6.17h2.027c2.11,0,4.017,0.86,5.398,2.256l-0.154-5.387c14.284-14.299,12.771-26.721,10.336-34.893
	c-3.1-10.393-10.473-17.418-20.758-19.774C101.514,78,88.944,81.144,82.916,87.744c-16.697,18.281-6.784,38.157,1.692,47.238
	l-0.439,5.934C85.563,139.289,87.612,138.236,89.918,138.236z"/>
<path fill="#FFFFFF" d="M91.345,143.639l0.398-5.402h-1.825c-2.306,0-4.355,1.053-5.75,2.68l-0.162,2.176L91.345,143.639z"/>
<path fill="#FFFFFF" d="M117.315,138.236h-2.027l0.177,6.092h1.85c0.323,0,0.604,0.12,0.851,0.291l4.662-0.133l-0.114-3.994
	C121.332,139.097,119.425,138.236,117.315,138.236z"/>
</svg>
