<?xml version="1.0" encoding="utf-8"?>
<!-- Generator: Adobe Illustrator 16.0.0, SVG Export Plug-In . SVG Version: 6.00 Build 0)  -->
<!DOCTYPE svg PUBLIC "-//W3C//DTD SVG 1.1//EN" "http://www.w3.org/Graphics/SVG/1.1/DTD/svg11.dtd">
<svg version="1.1" id="Layer_1" xmlns="http://www.w3.org/2000/svg" xmlns:xlink="http://www.w3.org/1999/xlink" x="0px" y="0px"
	 width="300px" height="300px" viewBox="0 0 300 300" enable-background="new 0 0 300 300" xml:space="preserve">
<path fill="none" d="M160.812,176h-0.059l-0.058-0.084c-0.767,0.15-1.538,0.19-2.309,0.327c-1.751,0.308-3.563,0.627-5.303,1.13
	c-1.213,0.35-2.189,1.123-2.75,2.177c-0.584,1.096-0.682,2.389-0.277,3.645c0.598,1.859,2.319,3.063,4.387,3.063
	c0.402,0,0.815-0.047,1.224-0.137c0.342-0.076,0.681-0.165,1.021-0.253c0.408-0.107,0.816-0.214,1.23-0.296
	c0.96-0.192,1.945-0.29,2.927-0.29c8.04,0,15.062,6.257,15.984,14.245c0.514,4.45-0.895,8.991-3.865,12.46
	c-2.881,3.364-6.974,5.39-11.229,5.558c-5.39,0.221-10.299-1.957-13.456-5.897c-3.129-3.905-4.245-9.18-3.063-14.469
	c0.745-3.338-0.384-5.676-3.097-6.414c-0.402-0.109-0.81-0.165-1.213-0.165c-2.311,0-4.122,1.782-4.51,4.435
	c-0.506,3.454-0.958,7.12-0.44,10.631c1.777,12.067,12.365,21.167,24.627,21.166c0.833,0,1.676-0.045,2.503-0.132
	c13.578-1.433,23.688-13.032,23.015-26.532C185.439,186.904,174.33,176,160.812,176z M162.975,225.76
	c-0.79,0.082-1.595,0.24-2.392,0.24c-0.001,0-0.002,0-0.002,0c-11.738,0-21.873-8.826-23.574-20.377
	c-0.496-3.365-0.055-7.06,0.44-10.437c0.313-2.143,1.67-3.526,3.459-3.526c0.31,0,0.623,0.043,0.936,0.128
	c2.862,0.778,2.693,3.565,2.338,5.157c-1.253,5.606-0.061,11.207,3.271,15.364c3.367,4.205,8.615,6.521,14.326,6.296
	c4.551-0.181,8.922-2.341,11.993-5.928c3.163-3.692,4.662-8.53,4.114-13.273c-0.983-8.516-8.468-15.185-17.039-15.185
	c-1.052,0-2.107,0.104-3.136,0.311c-0.433,0.086-0.861,0.198-1.29,0.31c-0.327,0.085-0.653,0.171-0.982,0.243
	c-1.986,0.439-3.817-0.491-4.371-2.214c-0.314-0.979-0.242-1.981,0.204-2.821c0.431-0.81,1.159-1.382,2.107-1.655
	c1.687-0.487,3.469-0.801,5.192-1.104c0.759-0.134,1.518-0.268,2.272-0.416c12.94,0.357,23.564,10.618,24.198,23.31
	C185.685,213.117,175.992,224.385,162.975,225.76z"/>
<path fill="none" d="M243,93.373c0,6.732,0.047,13.363,0.055,19.992c0.004,3.566,1.732,5.664,4.651,5.752l0.178,0.005
	c2.931,0,4.684-2.153,4.688-5.767c0.012-8.55,0.009-17.092,0-25.643c0-0.516-0.046-1.016-0.096-1.553
	c-0.023-0.248-0.046-0.471-0.064-0.732L252.377,85H243V93.373z M244,86h7.393c0.009,0,0.019,0.162,0.027,0.26
	c0.046,0.504,0.09,0.953,0.092,1.438c0.008,8.551,0.011,17.1,0,25.648c-0.004,1.76-0.479,4.711-3.628,4.711l-0.146-0.003
	c-2.945-0.089-3.647-2.601-3.651-4.69c-0.008-6.629-0.086-13.258-0.086-19.99V86z"/>
<path fill="none" d="M194.541,188.139c0.006-2.385,0.011-4.771-0.009-7.155c-0.058-7.678-5.646-13.265-13.285-13.285
	c-13.638-0.033-27.281-0.033-40.921,0c-7.683,0.02-13.271,5.605-13.289,13.283c-0.033,13.78-0.033,27.549,0,40.923
	c0.021,7.678,5.606,13.266,13.285,13.285c6.967,0.017,13.936,0.025,20.904,0.025c6.673,0,13.344-0.008,20.016-0.026
	c7.652-0.021,13.24-5.604,13.288-13.277c0.028-4.642,0.021-9.285,0.014-13.928l-0.007-6.277L194.541,188.139z M193.469,221.905
	c-0.044,7.063-5.187,12.203-12.229,12.222c-13.64,0.039-27.278,0.034-40.916,0.001c-7.065-0.018-12.207-5.159-12.225-12.227
	c-0.035-13.372-0.035-27.14,0-40.918c0.016-7.064,5.159-12.206,12.229-12.224c6.874-0.017,13.746-0.025,20.619-0.025
	c6.766,0,13.532,0.009,20.298,0.025c7.03,0.019,12.172,5.163,12.226,12.231c0.02,2.383,0.015,4.764,0.01,7.146l-0.005,3.212
	l0.007,16.636C193.489,212.625,193.496,217.265,193.469,221.905z"/>
<path fill="none" d="M78.456,87.338c-0.001-0.488-0.068-0.941-0.134-1.391c-0.026-0.186-0.053-0.344-0.072-0.52L78.196,85h-8.827
	l-0.107,0.346c-0.032,0.113-0.066,0.17-0.097,0.261c-0.074,0.22-0.146,0.427-0.146,0.67c-0.016,9.326-0.025,18.653-0.011,27.981
	c0.002,0.706,0.144,1.403,0.396,1.965c0.844,1.875,2.308,2.907,4.124,2.907c0.343,0,0.702-0.037,1.065-0.11
	c2.5-0.504,3.876-2.279,3.874-5.006c-0.004-3.905-0.004-7.807-0.004-11.713C78.464,97.312,78.464,92.326,78.456,87.338z
	 M74.385,117.979c-0.296,0.06-0.583,0.091-0.856,0.091c-1.761,0-2.687-1.239-3.155-2.281c-0.194-0.428-0.302-0.969-0.304-1.527
	c-0.015-9.326-0.005-18.646,0.011-27.97c0-0.064,0.037-0.292,0.08-0.292h7.097c0.005,0,0.011,0.057,0.016,0.091
	c0.061,0.413,0.121,0.827,0.122,1.237c0.008,4.988,0.008,9.979,0.008,14.967c0,3.906,0,7.812,0.004,11.717
	C77.408,116.24,76.392,117.575,74.385,117.979z"/>
<path fill="#FFFFFF" d="M280.887,61.102c-0.295-0.02-0.593,0.43-0.891,0.43L278.593,62h-26.73l-0.137-0.782
	c-0.094-0.229-0.18-0.671-0.261-0.876c-0.16-0.404-0.302-0.88-0.479-1.225c-0.811-1.582-2.049-2.316-3.68-2.039
	c-1.739,0.297-2.771,1.389-2.981,3.211c-0.074,0.637,0.295,1.27,0.309,1.953c0.006,0.273,0.367,0.533,0.367,0.805v14.48
	l-1.641,0.082c-0.41,0.029-0.913,0.053-1.239,0.059c-5.276,0.1-6.12,0.768-6.12,5.951V98.75l-0.479,0.047
	c-3.33,0.332-6.635,0.671-9.923,1.008c-7.376,0.756-15.003,1.537-22.475,2.186c-8.375,0.727-8.375,0.727-9.148,8.793l-0.021,0.266
	c-1.379,13.22-10.334,22.872-22.814,24.453c-2.206,0.28-4.646,0.498-7.685,0.498c0,0-0.001,0-0.002,0
	c-1.526,0-3.06-0.118-4.592-0.149c-1.524-0.03-3.048-0.105-4.567-0.105l-0.713-0.02c-6.175,0-11.252-1.739-15.092-5.149
	c-2.559-2.271-4.779-3.205-7.663-3.205c-0.942,0-1.967,0.1-3.132,0.307c-12.533,2.238-22.533,12.143-23.779,23.551
	c-0.791,7.23-0.586,14.708-0.387,21.938l0.041,1.506c0.062,2.305,1.118,4.676,2.138,6.968l0.181,0.404
	c0.933,2.101,2.92,2.91,4.828,1.995c2.328-1.116,2.036-3.526,1.381-5.351c-0.975-2.719-1.491-5.046-1.581-7.114
	c-0.18-4.193-0.137-8.46-0.094-12.585c0.01-1.08,0.021-2.159,0.028-3.238c0.07-10.784,8.107-19.834,18.695-21.052
	c1.376-0.16,3.145,0.349,4.346,1.206c4.527,3.234,8.476,5.483,13.033,5.943c6.998,0.706,14.042,0.82,20.853,0.93l0.55,0.006
	c7.141-0.001,13.906-2.315,20.104-6.879c1.167-0.858,2.952-1.369,4.353-1.211c10.587,1.188,18.639,10.223,18.729,21.016
	c0.009,1.082,0.026,2.165,0.043,3.248c0.057,3.533,0.114,7.187-0.11,10.773c-0.199,3.213-0.982,6.383-1.767,9.354
	c-0.339,1.282-0.589,3.604,1.552,4.738c0.558,0.295,1.16,0.451,1.742,0.451c1.222,0,2.271-0.665,2.88-1.825
	c0.987-1.885,2.104-4.019,2.228-6.032c0.455-7.438,0.519-14.94,0.523-20.647c0.008-11.376-7.128-21.883-17.757-26.145
	c-0.944-0.379-1.923-0.702-2.71-0.963c-0.326-0.107-0.623-0.205-0.874-0.293l-0.479-0.167l5.707-18.963L236,105.867v0.586
	c0,1.012-0.004,1.975-0.016,2.905c-0.018,1.923-0.035,3.739,0.041,5.526c0.261,6.24,5.345,11.225,11.574,11.347l0.23,0.002
	c6.371,0,11.652-4.979,11.775-11.098c0.184-9.269,0.133-18.7,0.084-27.822l-0.03-5.838c-0.011-3.019-2.142-3.73-3.927-3.796
	c-0.795-0.031-1.596-0.359-2.433-0.352c-0.402,0.004-0.813-0.328-1.237-0.328H251v-8.804l21.334,0.009
	c2.668,0,5.468-0.006,8.135-0.028c2.306-0.02,3.993-1.464,4.01-3.51C284.495,62.715,283.057,61.248,280.887,61.102z M252.377,85
	l0.035,0.428c0.019,0.262,0.041,0.484,0.064,0.732c0.05,0.537,0.096,1.037,0.096,1.553c0.009,8.551,0.012,17.093,0,25.643
	c-0.005,3.613-1.758,5.767-4.688,5.767l-0.178-0.005c-2.919-0.088-4.647-2.186-4.651-5.752c-0.008-6.629-0.055-13.26-0.055-19.992
	V85H252.377z"/>
<path fill="#FFFFFF" d="M201.646,181.341c-0.036-12.007-8.747-20.734-20.712-20.753c-6.846-0.011-13.691-0.017-20.538-0.017
	c-6.53,0-13.06,0.005-19.591,0.017c-12.076,0.02-20.857,8.783-20.878,20.837c-0.024,13.376-0.019,26.751-0.001,40.128
	c0.017,12,8.725,20.727,20.707,20.751c13.461,0.026,26.925,0.021,40.387,0.001c11.728-0.019,20.595-8.865,20.626-20.579
	c0.012-4.588,0.009-9.177,0.005-13.766l-0.003-6.428l0.004-5.587C201.656,191.078,201.66,186.209,201.646,181.341z M194.53,221.911
	c-0.048,7.673-5.636,13.257-13.288,13.277c-6.672,0.019-13.343,0.026-20.016,0.026c-6.969,0-13.938-0.009-20.904-0.025
	c-7.679-0.02-13.265-5.607-13.285-13.285c-0.033-13.374-0.033-27.143,0-40.923c0.019-7.678,5.606-13.264,13.289-13.283
	c13.64-0.033,27.283-0.033,40.921,0c7.64,0.021,13.228,5.607,13.285,13.285c0.02,2.385,0.015,4.771,0.009,7.155l-0.004,13.567
	l0.007,6.277C194.551,212.626,194.559,217.27,194.53,221.911z"/>
<path fill="#FFFFFF" d="M120.241,109.357l0.706,4.956c0.339,2.372,1.867,3.786,3.879,3.615c0.963-0.085,1.775-0.501,2.349-1.204
	c0.667-0.816,0.955-1.963,0.812-3.229c-0.229-2.015-0.502-4.024-0.774-6.034l-0.188-1.396c-0.293-2.156-1.462-3.308-3.576-3.52
	c-3.384-0.339-6.768-0.669-10.151-1c-3.829-0.374-7.658-0.748-11.485-1.134c-3.598-0.362-7.192-0.743-10.839-1.13l-5.4-0.571
	l0.005-5.47c0.006-3.824,0.011-7.559-0.014-11.293c-0.019-2.929-1.289-4.207-4.245-4.273c-0.406-0.01-1.028-0.012-1.439-0.012
	L77,77.67v-9.476l22.83,0.014c2.162,0,4.433-0.007,6.595-0.031c2.308-0.026,3.966-1.483,3.955-3.546
	c-0.01-2.02-1.567-3.441-3.919-3.537c-0.277-0.012-0.54,0.44-0.817,0.44L104.178,62h-26.42l-0.135-0.784
	c-1.411-3.426-2.866-4.05-3.838-4.05c-0.204,0-0.413-0.094-0.628-0.054c-1.388,0.255-2.565,1.002-2.567,4.999
	C70.586,65.668,71,69.168,71,72.819v4.714l-1.686,0.078c-0.443,0.029-0.991,0.051-1.333,0.057c-5.229,0.088-5.993,0.762-5.994,6
	l-0.053,5.729c-0.004,8.021-0.032,15.926-0.022,23.947C61.924,120.674,66.819,126,73.588,126h0.132
	c6.831,0,11.814-5.245,11.851-12.631c0.008-1.511,0.005-2.965,0.002-4.526l-0.002-2.999l6.532,0.66
	c3.741,0.368,7.354,0.73,10.968,1.094c3.855,0.388,7.712,0.79,11.593,1.188L120.241,109.357z M74.594,119.02
	c-0.363,0.073-0.723,0.11-1.065,0.11c-1.816,0-3.28-1.032-4.124-2.907c-0.253-0.562-0.395-1.259-0.396-1.965
	c-0.015-9.328-0.005-18.655,0.011-27.981c0.001-0.243,0.072-0.45,0.146-0.67c0.03-0.091,0.064-0.147,0.097-0.261L69.369,85h8.827
	l0.054,0.428c0.02,0.176,0.046,0.334,0.072,0.52c0.065,0.449,0.133,0.902,0.134,1.391c0.008,4.988,0.008,9.974,0.008,14.963
	c0,3.906,0,7.808,0.004,11.713C78.47,116.74,77.094,118.516,74.594,119.02z"/>
<path fill="#FFFFFF" d="M103.893,85.964c-1.541,0-3.082,0.003-4.624,0.011c-2.534,0.014-4.187,1.393-4.209,3.512
	c-0.009,0.945,0.312,1.774,0.926,2.398c0.738,0.748,1.879,1.164,3.21,1.17c7.857,0.034,15.714,0.032,23.567,0.003
	c2.542-0.011,4.035-1.29,4.204-3.604c0.244-3.316,1.909-5.813,4.949-7.418c3.116-1.647,5.888-2.756,8.475-3.391
	c6.243-1.531,12.852-2.309,19.641-2.309c4.587,0,9.381,0.354,14.248,1.053c5.288,0.76,10.365,2.559,14.199,4.04
	c3.766,1.456,5.942,4.421,6.129,8.349c0.1,2.049,1.52,3.244,3.895,3.277c2.776,0.039,5.555,0.029,8.328,0.02
	c1.193-0.003,2.387-0.006,3.581-0.006l7.012,0.004c1.462,0,2.923-0.002,4.384-0.008c2.98-0.011,4.694-1.301,4.7-3.539
	c0.003-0.954-0.292-1.736-0.88-2.328c-0.796-0.801-2.108-1.227-3.794-1.23l-2.813-0.002l-6.174,0.003
	c-3.049,0-6.1-0.007-9.149-0.045c-0.763-0.011-2.457-0.323-2.837-1.225c-3.375-8.002-10.631-10.927-17.284-12.733
	c-6.491-1.762-13.607-2.617-21.756-2.617c-2.71,0-5.541,0.091-8.653,0.277c-6.51,0.393-14.124,1.214-21.251,4.336
	c-5.693,2.496-9.228,5.806-11.119,10.417c-0.377,0.913-1.953,1.516-2.872,1.53c-3.158,0.051-6.284,0.059-9.191,0.059L103.893,85.964
	z"/>
<path fill="#FFFFFF" d="M64.842,64.701c0.013-1.069-0.289-1.926-0.896-2.543c-0.677-0.688-1.735-1.055-3.061-1.06
	c-3.334-0.013-6.666-0.021-9.998-0.021c-3.214,0-6.429,0.008-9.643,0.022c-2.525,0.013-4.184,1.382-4.222,3.487
	c-0.017,0.941,0.288,1.761,0.881,2.371c0.77,0.789,1.969,1.215,3.469,1.229c1.265,0.012,2.529,0.016,3.794,0.016l5.765-0.009
	l5.964,0.007c1.285,0,2.57-0.003,3.854-0.012C63.356,68.171,64.811,66.932,64.842,64.701z"/>
<path fill="#FFFFFF" d="M215.308,68.184c1.263,0.017,2.526,0.021,3.789,0.021l5.764-0.012c1.01,0,2.021,0.004,3.03,0.008
	c2.347,0.01,4.694,0.018,7.039-0.021c2.373-0.037,3.949-1.389,4.015-3.441c0.03-0.947-0.283-1.79-0.905-2.438
	c-0.733-0.762-1.848-1.187-3.136-1.195c-6.543-0.043-13.088-0.039-19.629-0.003c-2.485,0.015-4.149,1.442-4.139,3.554
	C211.146,66.768,212.782,68.152,215.308,68.184z"/>
<path fill="#FFFFFF" d="M160.843,176.872c-0.755,0.148-1.514,0.282-2.272,0.416c-1.724,0.304-3.506,0.617-5.192,1.104
	c-0.948,0.273-1.677,0.846-2.107,1.655c-0.446,0.84-0.519,1.842-0.204,2.821c0.554,1.723,2.385,2.653,4.371,2.214
	c0.329-0.072,0.655-0.158,0.982-0.243c0.429-0.111,0.857-0.224,1.29-0.31c1.028-0.206,2.084-0.311,3.136-0.311
	c8.571,0,16.056,6.669,17.039,15.185c0.548,4.743-0.951,9.581-4.114,13.273c-3.071,3.587-7.442,5.747-11.993,5.928
	c-5.711,0.226-10.959-2.091-14.326-6.296c-3.332-4.157-4.524-9.758-3.271-15.364c0.355-1.592,0.524-4.379-2.338-5.157
	c-0.313-0.085-0.626-0.128-0.936-0.128c-1.789,0-3.146,1.384-3.459,3.526c-0.495,3.377-0.937,7.071-0.44,10.437
	C138.708,217.174,148.843,226,160.581,226c0,0,0.001,0,0.002,0c0.797,0,1.602-0.158,2.392-0.24
	c13.018-1.375,22.71-12.643,22.066-25.578C184.407,187.49,173.783,177.229,160.843,176.872z"/>
</svg>
