<?xml version="1.0" encoding="utf-8"?>
<!-- Generator: Adobe Illustrator 16.0.0, SVG Export Plug-In . SVG Version: 6.00 Build 0)  -->
<!DOCTYPE svg PUBLIC "-//W3C//DTD SVG 1.1//EN" "http://www.w3.org/Graphics/SVG/1.1/DTD/svg11.dtd">
<svg version="1.1" id="Layer_1" xmlns="http://www.w3.org/2000/svg" xmlns:xlink="http://www.w3.org/1999/xlink" x="0px" y="0px"
	 width="300px" height="300px" viewBox="0 0 300 300" enable-background="new 0 0 300 300" xml:space="preserve">
<g>
	<path fill="#FFFFFF" d="M175.495,129.723h7.073v7.074h-7.073V129.723z"/>
	<path fill="#FFFFFF" d="M251.795,233.532c-1.797-4.786-5.564-8.564-10.348-10.35l-4.01-1.504
		c-11.257-4.209-20.99-11.684-27.966-21.467c-4.651-6.499-12.15-10.36-20.142-10.365h-48.951c1.771-12.175,12.207-21.204,24.5-21.22
		l14.508-0.02l15.204-1.52c13.171-1.289,22.997-12.72,22.282-25.934l-2.566-48.807l-31.543-19.721l-31.035,15.518
		c-8.982,4.439-19.762,2.997-27.258-3.65l58.216-35.578l50.271,26.811l20.717,41.43l6.323-3.156l-21.724-43.447l-55.828-29.777
		L113.641,82.82l2.505,3.142c1.447,1.797,3.101,3.425,4.907,4.861H44.641c-5.862,0-10.611,4.748-10.611,10.61v63.657
		c0,5.856,4.749,10.61,10.611,10.61h93.793c-3.512,5.225-5.385,11.385-5.379,17.684v3.536h56.275
		c5.713,0.005,11.066,2.763,14.387,7.402c7.787,10.929,18.664,19.279,31.231,23.977l4.014,1.504
		c2.864,1.078,5.128,3.343,6.201,6.206l8.346,22.283l6.633-2.473L251.795,233.532z M189.643,160.491l-10.616,1.063h-10.605V97.892
		h17.685c1.945,0,3.537,1.587,3.537,3.542V160.491z M182.373,80.727l25.05,15.656l2.378,45.141
		c0.44,8.332-5.026,15.825-13.086,17.967v-58.057c0-5.862-4.752-10.61-10.609-10.61H162.18L182.373,80.727z M62.323,168.627H44.641
		c-1.951,0-3.537-1.587-3.537-3.536v-63.657c0-1.955,1.586-3.542,3.537-3.542h17.683V168.627z M69.393,168.627V97.892h91.956v63.872
		c-6.017,0.668-11.72,3.05-16.427,6.863H69.393z"/>
	<path fill="#FFFFFF" d="M104.76,154.019l31.123-20.759l-31.123-20.754V154.019z M111.833,125.725l11.319,7.535l-11.319,7.535
		V125.725z"/>
</g>
</svg>
